/* XPM */
static char *ed5659d8480c4f989516d2a0c31a40bbNQh8nx014Qneg0aX[] = {
/* columns rows colors chars-per-pixel */
"100 56 233 2 ",
"   c #0D1316",
".  c #14161A",
"X  c #151A1C",
"o  c #1A1D1D",
"O  c #151515",
"+  c #0E0F10",
"@  c #261C19",
"#  c #311C19",
"$  c #1D201F",
"%  c #2B221D",
"&  c #34241E",
"*  c #1C1E22",
"=  c #151B29",
"-  c #14192A",
";  c #1E2122",
":  c #17252B",
">  c #1B2933",
",  c #1E333A",
"<  c #0F2530",
"1  c #222424",
"2  c #23262A",
"3  c #252A2A",
"4  c #2A2D2C",
"5  c #292724",
"6  c #3B2B24",
"7  c #3C2E2A",
"8  c #342926",
"9  c #2E312E",
"0  c #35322E",
"q  c #3C312C",
"w  c #232236",
"e  c #2B2E32",
"r  c #252439",
"t  c #2A2B3C",
"y  c #262937",
"u  c #2E3133",
"i  c #22343C",
"p  c #2A373C",
"a  c #333534",
"s  c #3B3533",
"d  c #363836",
"f  c #3B3A36",
"g  c #33353B",
"h  c #36393A",
"j  c #3B3C3B",
"k  c #392F30",
"l  c #211F34",
"z  c #442D27",
"x  c #45322B",
"c  c #4A342D",
"v  c #4C382D",
"b  c #52342D",
"n  c #443A34",
"m  c #4C3B33",
"M  c #423E3B",
"N  c #483834",
"B  c #523C34",
"V  c #583B36",
"C  c #623F3C",
"Z  c #3E403D",
"A  c #44413E",
"S  c #4D423C",
"D  c #4A4037",
"F  c #54433B",
"G  c #5B443C",
"H  c #584439",
"J  c #63473E",
"K  c #1F3943",
"L  c #223A42",
"P  c #3B3D43",
"I  c #373B44",
"U  c #3A3955",
"Y  c #2E2F48",
"T  c #4A3F4C",
"R  c #3D4244",
"E  c #3D434B",
"W  c #374344",
"Q  c #304450",
"!  c #3A4765",
"~  c #3F657C",
"^  c #444543",
"/  c #4A4543",
"(  c #464945",
")  c #4C4A46",
"_  c #43464B",
"`  c #454A4C",
"'  c #4B4C4B",
"]  c #544A44",
"[  c #5C4C43",
"{  c #534D4A",
"}  c #594C47",
"|  c #4E504D",
" . c #53524D",
".. c #5C544C",
"X. c #5A544A",
"o. c #454B52",
"O. c #4B4D52",
"+. c #444654",
"@. c #4D5254",
"#. c #4D545A",
"$. c #4A5458",
"%. c #545553",
"&. c #5A5652",
"*. c #565955",
"=. c #5C5A55",
"-. c #53555B",
";. c #555A5D",
":. c #5B5C5B",
">. c #595758",
",. c #514F50",
"<. c #634C42",
"1. c #684945",
"2. c #64544C",
"3. c #6C554B",
"4. c #675549",
"5. c #74564B",
"6. c #635C55",
"7. c #6C5C53",
"8. c #625E59",
"9. c #685955",
"0. c #725E54",
"q. c #7B5C54",
"w. c #755B55",
"e. c #5E615D",
"r. c #64625D",
"t. c #6A635C",
"y. c #6A6256",
"u. c #756255",
"i. c #73645B",
"p. c #7B655B",
"a. c #7C6A5D",
"s. c #77665A",
"d. c #555B61",
"f. c #5B5E62",
"g. c #45536B",
"h. c #5D6164",
"j. c #5D6169",
"k. c #54707B",
"l. c #646463",
"z. c #6A6662",
"x. c #666965",
"c. c #6C6A65",
"v. c #64656A",
"b. c #666A6B",
"n. c #6B6C6A",
"m. c #6B6768",
"M. c #736C64",
"N. c #7B6C63",
"B. c #726E6A",
"V. c #766863",
"C. c #6E716D",
"Z. c #7B7166",
"A. c #74726D",
"S. c #7C746B",
"D. c #7E796D",
"F. c #777065",
"G. c #6C6D72",
"H. c #666A72",
"J. c #6E7172",
"K. c #747573",
"L. c #797671",
"P. c #777975",
"I. c #7C7A74",
"U. c #7C7D7A",
"Y. c #75777A",
"T. c #615F60",
"R. c #835C54",
"E. c #86665C",
"W. c #836D63",
"Q. c #886D65",
"!. c #847265",
"~. c #83746B",
"^. c #8A766B",
"/. c #83796E",
"(. c #8C7A6D",
"). c #8A7265",
"_. c #91776B",
"`. c #847C73",
"'. c #8B7D73",
"]. c #827E79",
"[. c #867A73",
"{. c #927D72",
"}. c #997D73",
"|. c #916E64",
" X c #7F817C",
".X c #8C8175",
"XX c #84827C",
"oX c #8C847B",
"OX c #898479",
"+X c #948275",
"@X c #93857B",
"#X c #9A857A",
"$X c #948A7D",
"%X c #9B8B7D",
"&X c #988476",
"*X c #A18A7E",
"=X c #567485",
"-X c #7C7D82",
";X c #5B8493",
":X c #6B8B94",
">X c #6997A2",
",X c #858582",
"<X c #8A8681",
"1X c #8B8A85",
"2X c #8C8D8B",
"3X c #868988",
"4X c #948C83",
"5X c #9B8E82",
"6X c #918E8A",
"7X c #9C9184",
"8X c #93928D",
"9X c #9B938A",
"0X c #979287",
"qX c #8B9395",
"wX c #949592",
"eX c #9A9A97",
"rX c #8C8D8F",
"tX c #A18E82",
"yX c #A39388",
"uX c #A49D95",
"iX c #A8A39A",
"pX c #ABA9A6",
"aX c #B2ADA7",
"sX c #B6B2AC",
"dX c #B9BAB6",
"fX c #ACB0AF",
"gX c #99A0A0",
"hX c #BCC0BC",
"jX c #C5C4BE",
"kX c #C8C9C5",
"lX c #D1D3CE",
"zX c #D8DAD6",
"xX c #CFD3D0",
/* pixels */
" XU.A.XX2X8X4XoX4X0X$X$X4X9XuXiXaX6X+.T +.U U Y U ! k.;Xk.> = X . . O O X o o o o o X o o o $ $ ; $ ; o o 3 o 1 4 9 a a d d f j j j j d 3 ; o 1 d ( ^ Z @.f &..X.X`.I.XXXX`.I.XX<X1XXX X2X3X@.fXzXkXdXdX",
"A.XXI.A.oXoXoX.XoX4X4XoX$X4XyXuXiXaXrXO.T +.U ! ! =X;X:Xk.: X o X X o o o o o o o o o $ ; ; ; 1 1 1 $ o $ 1 $ 1 4 a a a d d j Z Z Z A j 4 o o 1 d Z ^ | h 0 A..X`.D.I.XXXXI.U.XX,X1XXXXX8XY.#.gXhXdXlXzX",
"x.U.,XL.S.S.'..X'.$X9X4X$X$X4X9XiXiXaX2X+.U ! g.=X>X>X=XL . X o X X X o o o $ ; ; 1 1 1 1 ; 1 1 1 ; o o $ o 1 3 5 4 9 9 0 a a d d d f d 4 $ o ; 4 d ( a Z I..X`.D.D.`..X`.I.I.U.XX,XXX,XeXb.o.eXxXzXlXdX",
":.n.XXoXV.M.(.@X.X.X4X4XS.oX$X5X9XiXiXsXrX+.g.=X:X>X;XQ : ; X . . . O X o o o $ ; 1 1 ; ; ; ; 1 ; * $ 1 o o 1 3 1 5 5 5 4 4 9 a d d j ^ d ; o ; u d 4 ^ iX0XS.`.D.D.OX.XI.D.S.S.XX1XXX,XeX;.$.fXxXdXdXkX",
"*.e.K.XX`.t.S.oX4XOX$X`.[ ~.+X+X$XyXiXpXsX3Xk.:X>X;XQ X X X .   + X X O O O O X * * o o ; 1 1 1 1 ; 1 3 3 ; 3 3 1 5 4 9 9 a d h ^ / ( ' h 1 * 4 h 3 | iXdXZ.M./.D.D..X.X`.S.S.XX2X,X X2XqXo.$.qXhXkXzXlX",
"` ;.l.I.1XS.V.OX4X9XoXOXu.0.p.^.@X0X9XiXiXfXqX:X=XQ X X X X X X O X ; X X o ; 1 3 3 3 2 3 3 4 3 3 3 3 9 u 1 4 d a h Z R ^ ( ( | %.*.*.*.d 3 4 j u ( aXkXeXS.S.S.S.D.OXOXI.S.`.1X1XI.XXwXY.W #.gXzXkXdXdX",
"g O.f.x.U.<XM.M.oX9X5XS.@X^.w.Q.4X$X5XyXiXpXfX:XW > 3 2 3 3 3 2 o X ; 3 4 4 a d d h h d d h j Z Z R a 9 j u h ' ' | *.*.;.:.r.l.l.x.x.x.Z 3 e e x.8XkXaXD.S.S.S.S.`.`.`.D.D.oX4XXXI.1XwXh.E -.qXdXdXlXzX",
"t Y -.f.n.XX<XM.M.oXyX{.W.tXQ.^.4X$X$X0XyXiXaX8Xd e u e e u u 4 2 1 ; 3 4 4 a d d d d a a a d h d d a d d d Z ' ' ' %.*.*.:.:.:.:.e.r.:.^ 4 ; j pXaXsXoXS.S.S.S.S.`.`.`.D.`.1XoXI.XX2X2X#.E #.qXxXzXlXdX",
"Y t I ;.h.K.1XoXV.Z.@XyX{.&X5X5X4X4X4X@X0XuXiXiX%.4 u e e e 4 3 3 3 2 ; 3 4 3 3 3 3 4 4 4 u a a d h ^ ' j d ' | | *.l.l.x.n.A.I.2X1XA.:.' u 2 ` fXpX4XS.S.S.S.S.S.`.`.`./..X4X<XU.XX2X:X` o.-.eXkXdXdXkX",
"t t t P ;.l.I.<X`.M.~.#X{.p.5X5X9X9X9X4X$X9XuXiXl.4 9 u u u a a a d u 4 ^ %.( j ^ ^ _ ` ( ' %.*.*.:.x.K.e.%.C.P.K.XX2X8XwXeXeXuXaXaXaXpX1X( d | pX0XV.S.S.S.N.M./.`.`.`.`.S.].1XU.,X1XJ.E o.#.rXkXlXzXlX",
"t Y t y E f.b.U.1X`.M.~.{.q.q.tX5X9X9X9X$X4XyX4XB. .%.*.*.:.:.*.*.:.%.( *.e.r.l.x.n.b.n.l.n.A.K.K.K.n.b.U.XX8XwX8XgXaXsXsXuX@X$X4XiXjXsXeXL.B.B.0X/.M.S.S.S.i.N.`.`.'..X`.j ( U.XX2XrXh.o.o.d.gXxXjXdXdX",
"t t r r w o.v.C.XX1XS.~.'.}.w.p.5X0X9X4X@X@X4X4XI.c.b.n.n.n.n.b.l.n.n.x.l.*.x.A.A.K.K.K.n.K.U.U. XXXU.U.,X2X8XeXwXiXaXaXyX~.N.^.#X7XuXoXoX4X5XOX.X`.`.S.S.Z.s.S.'.`.'.'...5 1 :.1X2XwX-.#.$.-.3XdXkXlXzX",
"r r w r r y #.v.K.<X].} Z.'.5X[..X4X@X'.$X$X4X0X].r.l.l.x.x.x.x.r.x.n.n.n.A.A.K.K.P.P.I.A.I.U. XXXXX,X1X2X2XwXeXeXiXpX4X^.N.E.{.%X%X@X$X5X0X5X5X4X7X4X$XoX`.Z./..X`.'.S.A z.z.L.<X2XwX;.d.#.d.gXzXlXkXhX",
"w w w w r w t -.v.P.1X=.} '.4X9X4X4X@X~.4X$X@X4XK.l.l.l.x.x.x.x.l.C.A.A.A.K.P.I.U.U.U.U.I.U.,X,X3X3X1X2X2XwXeXeXeXiXuX'.~.^.{.%XtX5X7XyXyXyX7X7X7X0X5X5X5X$X.X`.`.`././.4X6XXXXX<X2XeX;.d.#.d.qXdXdXdXkX",
"w w w r w r w I ;.b.,X<X] y.<X6X9XoX@X`..X$XoXXXb.x.b.b.n.n.n.J.n.K.P.P.P.I.U.U.XX,X,X,XU.,X1X2X2X2X2X6X8XwXeXiXuXuX4X(.'.#X5XtX5X5X5X7XyXyX7X7X7X7X7X7X0X7X5X@X/./.Z.`.4XoXI.<XXXeXfX;.d.#.-.qXxXzXzXlX",
"w w w r r r y y E f.n.<XXXt.<X6X9X4XoXOX`.4XoXI.n.n.n.n.C.J.K.K.K.n.*.%.%. .%. .x.XX3X3X,X1X2X2X2X6X8X8XwXwXeXiXeX4X^.(.%XtX%X%X5X%X%X7X7X7X7X7X7X5X7X7X7X7X7X$X`.~.Z.'.oX`.I.<XXXdXfX;.d.#.d.eXkXkXdXhX",
"w w w r r t t t w _ l.K.1X<XI.1X0X9X4XOXoXoX<XU.A.C.J.K.K.K.P.Y.P.x.Z 9 a a 0 0 d x.1X2X,X1X6X8X6X2X8X8XwXwXuXiX9X'.(.+XtX%X#X%X%X#XtX%X7X7X5X7X7X5X5X5X5X5X%X$X$X`.Z.`.oX`.].<X2XkXfXf.d.#.#.3XkXkXkXpX",
"w w w r t t t y > 2 O.b.U.2XXX`.$X4X4X].OXOXoX<XXXK.K.K.K.K.P.Y.P.U.x.f f f f f 0  .U.<XI.I.XX].1X8XwXwXeXeXiXuX$X+X#X%X#Xp.W.#X%X%X%X%X%X%X5X5X%X%X%X%X%X%X$X$X5X$X/..XoXI.XXXXeXlXfXd.-.#.#.eXdXwX3XY.",
"w w r r r r r > = : p $.J.XX2XI.`.oX4X.X`.oXXXoX2XU.C.K.K.P.P.U.I.XXB.D D D D n n F 9.2.[ ] S D r.U. X XXXXXXX4X%X%XtX+X4.z 0.+X#X#X%X%X%X%X%X$X#X%X$X@X$X%X$X$X$X$X.X`.`.L.<XXXpXlXfXd.#.` ;.wX2XP.K.Y.",
"w w r r r r > = : i i p *.K.,XoXI.].4X5X`.`.<XXXXX1X].P.P.P.I.K.c.r...] [ [ [ H 2.0.p.3.7.0.7.F n /  .%. ...M.@X%X%XtX#Xp.V W.%X#X#X#X%X%X%X#X#X$X$X#X#X$X%X%X$X$X4X@X/.S.I.<X,XdXzXdX;.` f.3XwX3X XY.Y.",
"w w w r r w = = , i i y @.l.U.2XXXU.oX4X4X`.OX<X`.L.].P.B.B.n.=.S m S F F H <.G 4.u.a.0.u.a.W.N.s.} ....X.2.'.+X&X&X5XyX5X{.%X#X%X%X%X%X%X%X%X+X$X%X$X$X$X$X$X$X$X$X~.M.S.`.].1XdXdXpXl.v.3X,XP.J.n.n.G.",
"l w w w w = - > i i > W Y.n.c.,X2XU.].oX4X4X].oXoXS.I.].A.r.{ n q x m c H G 3.<.7.u.p.0.u.u.p.p.~.(.!.Z.Z.a.(.+X{.&XtXyX#X#X#XtXyXtX%X%X%X%X+X+X@X$X#X+X.X+X$X@X$X.Xu.i.M.`.<XeXpX2XeXeX-XG.v.v.f.f.v.v.",
"l w w w = - = i i > p d.C.P.x.K.1X<XI.XX4X4X4X`.oX`.L.`.`.6.n q q q F u.(.+X&X!.u.s.!.a.a.W.^.W.p.!.!.7.G 0.).{.#X#X*X}.}.}.}.#XtXyXtX5X%X%X+X+X.X.X(.(.'..XoX.XoXoX/.S.F.].6XeXU.,XwXY.K.Y.Y.n.f.f.v.G.",
"l w w = - = , i , > o.;.h.C.C.l.U.6XoX`.$X4X9XoX'..X/.S.S.} 7 7 6 [ +X+X^.{.&X%X{.u.!.(.'.^.(.^.a.a.(.!.<.<.p.{.#X%XQ.E.E.|._._.}.tX%X#X%X#X'.^.(.(.N.Z./..X'..XoXoX'./.S.].2XwX-X-Xv.n.n.v.G.v.-.d.;.f.",
"w w = = - > i , > p @.( :.l.l.*.x.XX4XXX].$X4X4XOX.X`.V.X.n 8 8 m (.Q.3.3.3.q.0.p.0.0.{.+X(.#X(.!.W.'.+Xs.H u.{.&XQ.E.E.E.E.E.|._.&X&X'.'.'.~.S.~.s.i.~./././.`..X`./.`.`.XX6XpX3Xj.-.d.v.f.-.-.#.;.;.v.",
"l l - - > , , , > W R R *.r.e.%.%.A.<X4X`.oX4X4X4X'..XS.F 6 8 & 2._.5.J J G V c G 3.p.'.%X#X%X+X{.(.{.{.p.v u.{.{.q.q.E.E.R.E.|._._.{.~.~.!.i.i.2.7.~./.~.!.~./..X`./.`.].<XwX3X;.-.#.v.U.K.n.-.-.G.n.v.",
"l - - : L , , : Z *.*.' ( ' ` Z d ' I.2X4XXX1X4X4X$X'..Xy.& % S a.).3.G b B c H 0.~.(.+XtX%X%X%X%X%X%X#X7.H 0.!.Q.p.q.R.R.R.R.E.|.Q.W.N.W./.0.[ F 7.V.s.N.Z.M.`..X/.S.`.].1X3X>.-.v.d.d.n.P.P.l.:.v.K.P.",
"- - = L , , : W x.c.l.:.( 4 1 3 3 4 :.XX6XoX].4X4X4X.X`.'.S @ [ W.E.J b c c 2.u.~.'.#X%XtX%X%XyXtX5XyX{.0.0.4.0.q.w.5.5.q.5.q.q.E.Q.~.~.'.'.i.m & z N [ i.N.Z./.`.`.S.S.oX,XO.O.G.G.d.+.;.K.n.K.U.K.A.U.",
"- - , K , > i j.C.n.c.l.:.A ; 1 3 4 j n.XX4X].XXoX@X4X/./.N.7 F W.s.G z H V 3.!.'.#X#X%X%X%X%XyXyXtXtX(.!.a.1.J <.1.J 1.5.b V J G W.#X@X@X.X'.W.G & # x i.~.Z.Z.S.S.M.L.XXl._ d.K.H.+.+.-.G.K.b.v.G.J.C.",
"- > K K , : $.J.A.A.n.l.*.%.a 1 4 a d ' K.1X4X`.`.4X4X'.M.N.[ F 4.<.B v m 7.p.^.(.#X%X%X#X%X#XtX5X%XtX#X(.W.0.J J V V 1.J G B G 3.p.N./..X.X'.+X+Xu.[ 2.S.S.M.S./.M.A.`.U.O.O.P +.O.E o.o.G.b.O.O.' @.v.",
"< K K L > p b.x.n.K.A.r.*.' ^ 4 4 d j j *.U.4X4XI.'.4X@XZ.7.2.2.<.m c m 2.0.'.(.(.+X+X+X#X&X&X+X+X%XtX*X(.W.u.1.<.<.V V <.1.3.0.p.N.~.N.M.N.~.!.'.+X'..X.Xa.M.Z.S.M.S.XXb.P %.;.O.o.+.P P j.v.-._ o._ $.",
"K K K , : o.b.e.e.C.C.l.( d  . .d d j j A r.U.1XoXD.@X@X'.7.<.2.[ B H 2.s.W.^.{.).^.).(.(.^.{.)._.&X#X%X+X(.E.3.G 1.J c B G [ 2.7.7.V.[.'.i.7.i.N.Z.(..X'.N.Z.F.M.S.U.I._ P ;.;.-.d.-.+.I I H.d.E E $.#.",
"K K L : 3 h.x.e.*.l.x.' ( *.:.&. .A d j A / c.XX1X.X`.@X4X~.[ 4.4.[ <.7.a.!.!.(.W.s.s.p.p.p.p.0.s.).{.&X{.+X).p.5.V G V c m F [ 2.7.t.i.N.i...2.y.i.Z.~..X/.S.S.S.D.].:.h h ` v.v.O.+.+.+.+.d.f.@.O._ O.",
"K L i X W x.x.l.:.e.e.*.l.l.*.&.=.=.A h j M  .L.XX4X`.`.4X'.u.2.0.u.u.p.a.).(.!.3.[ H G G G G H 3.a.^.(.^.{._.).p.3.b v c c F ] { 6.i.V.M.9.X.2.6.y.s.Z.'..X.XD.D.`.n.j g P -.v.n.-.+._ -.v.#.P o.f.@.;.",
"K , : X ` l.x.x.l.:.:.n.b.8.*.8.r.r.=./ M / / 8.L.oX4XS.oX.X'.u.7.).(.^.).).).a.m 7 x c c x B <.<.J u.E.).E.E.E.0.0.3.G m 7 q S ] } ..9.9.2...6.2.y.t.Z./..X.XI.I.XX' 4 R %.-.O.h.d.#.v.-.@.d._ E #.J.J.",
"L > X ; ` e.x.x.x.r.l.K.z.=.8.z.z.r.r.&./ A / ) l.L.1XOXM.oX'..X!.).!.!.a.s.s.<.6 6 & 8 c G 0.2.m m G 3.0.3.3.1.1.<.4.4.B N q 7 n ] ] } } 7.i.y.y.y.i.M./.`.S.S.XX:.3 4 ^ P _ ;.;.-.#.H.f.h.h.h.-.;.J.K.",
"i : = 3 ( :.r.l.x.r.n.A.r.8.r.z.z.8.=. .) ^ A A ( z.A.].I.S.oX@X.X^.^.!.s.3.4.x & N @ @ 5 N [ m 6 x m H H B J J <.H <.G F 7 7 N q s n / X...y.y.y.y.M.Z.D.OXD.I.A.d * 4 o.R j f.G.O.E d.v.v.O.v.Y.>.;.J.",
":   X 2 j | :.l.l.l.A.A.c.z.c.c.r.8.8.8.=. ./ A M ' n.A.L.B.S./..X).!.!.s.4.H 6 & 6 n 8 O @ x z x x x m m x G <.G c F x x N % q n q 0 n S ) ] ....6.y.F.S.D.S.L.h 1 X 3 P P O.n.G.v.P E h.b.O.;.Y.J.>.#.",
"+ +   = u ^ %.e.l.l.A.K.K.A.c.r.r.c.c.z.:.*.( j d A *.K.`.I.t.t.7.S.).a.u.4.7 6 # @ 8 x x 7 x c x m m x z z N H B x N 6 7 ] n 5 0 0 0 0 s M D { ..y.t.B.B.A.I.( 1 e * * e P f.v.v.O.I E n.n.h.d.d.-.G.H.",
"+ +     * u ( %.:.r.n.K.n.:.8.n.B.B.c.r.*.{ j / f A / =.A.U.`.S.M.2.i.!.s.F 6 & 6 x 6 & z m G <.G B F z 7 x m m m x z 7 6 ] s @ @ q A f % 5 0 f  .y.t.z.M.I. .o e g 2 X g ;.;.P P I P f.U.Y.;.;.-.#.O.d.",
"X     . . ; u ^ %.*.n.r./ :.A.A.B.c.r.r.:. .%.=.{ A M / x.I.L.S.S./.2.[ 7.[ q % 8 n [ [ 2.F 7.N.[ B H B z x x z x m c N & @ @ o O s A s @ O @ q  .=.6.t.A.{ o * e e 2 . g l.I.n.I I P Y.Y.b.;.v.h.;.-.E ",
"4 4 ; . X * ; a ( %.l.l.x.A.A.A.B.r.z.l.:.%.c.8.=.{ j M ' c.I.I.F.M.M.2.F n 7 8 @ % N [ [ G 0.^.0.F 7.u.m z x c x B m H m & @ @ @ 8 s 0 @ 5 S =.M.y.z.L. .o X 1 j e 1 X h l.l.b.;.E ;.Y.-.P >.G.h.d.j.#.",
"| *.%.Z 3 1 3 3 d ( r.P.L.K.L.A.A.c.c.n.=.x.c.t.8.&.) M A { B.].`.M.S.M.y.] q @ @ @ % 6 N [ N.~.N.4.~.'.0.2.B J H H 4.H 2.[ 8 @ 8 8 8 n } 6.A.F.M.S.I.8.o o * ; O._ 2 X h b.l.' ;.` v.U.O.-.v.O.O.;.f.h.",
"n.A.K.x.' u 3 4 d j l.I.L.S.L.L.A.B.K.%.&.c.c.z.r.z.8. .A j ) 8.c.A.6.i.6.t.2.n @ @ @ 7 2.u.[.'.^.u.p.{.'.{.3.3.0.s.^.u.3.4.m n q % n 6.M.M.M.F.I.U.z.5 * * . 1 _ %.e X 4 l.n.@._ _ O.Y.h.l.G.-._ _ v.h.",
"C.:.:.x.%.j 4 d ^ / r.P.L.L.L.L.A.I.r.{ l.z.z.r.z.c.t.8. .f ^ a O B.M.7.6.2.7.2.S % 8 n 2.s.u.~.{.N.w.Q._.(.Q.W.Q.^.&X^.N.a.S n 5 5 X.B.z.z.A.I.I.r.3 X X . . 2 g P e * g l.;.^ _ O.R @.v.b.n.l.-.' :.b.",
"d o O *.e./ / j / ( x.I.A.A.L.L.I.c.:.x.c.z.=.8.c.M.z.r.8. .M A 4 r.`.V.y...X.X.[ D S t.i.2.7.!.'.^.W.W.Q.Q.Q.Q.q.Q.{._.(.(.S % % ) r.t.B.S.I.I.&.o O . . . . 2 g t 2 X d n.n.' _ O.O.O.` ;.h.l.K.n.b.A.",
"+ + 9 C.l.( ) ( A ( n.L.A.A.L.I.A.z.A.A.z.z.c.M.c.M.c.z.z.8.M s A =.L.S.z.6...] ] ] ..9.`.~.u.7.!.^.Q.p.w.w.q.R.q.E._.(.+X/.n % M 6.y.B.S.S.K.' O + . . . . . P O.e e * j b.;.` O._ _ _ ` @.:.b.K.K.A.K.",
"+ a x.A.z.) / / ^ ( A.I.A.L.L.L.A.L.A.z.n.B.B.B.M.B.M.c.z.=.=./ 0 A r.A.B.8.8.6...{ 8.V.8./.'.N.s.W.7.<.V V C 1.1.5.q.Q.+X/.n n ..r.S.B.A.r.a O O . . X * * ; ` -.O.P 2 a ;.^ -._ P I R ` ' ' :.l.A.A.A.",
"a r.l.n.n. .A / / ) A.I.L.L.K.c.c.A.B.B.A.B.B.B.B.B.B.c.8.B.z.&.s 0 D =.B.B.r.8.8.8.z.B.S.7.V.[.~.N.<.V 1.1.C V b b V 1.~.'.t.] 6.z.L.A. .1 O O O . * 2 e 1 e _ l.:.P e 2 @.` O.R g I P P ^ ' ' *.:.x.n.",
"b.c.r.n.n.:.( / ( | A.L.A.L.A.x.n.A.A.A.A.B.B.A.A.B.B.8.z.B.z.8.) 0 s A =.n.c.8.6.8.z.t.z.M.z.z.M.V.1.V 1.4.V V b J J <.~.@Xy. .r.B.M.f o 1 a s d a 4 1 * X u %.;.O._ e 3 O.@.;.' P R R j _ %.*.:.r.l.l.",
"x.l.r.x.n.r.( / (  .A.A.B.A.B.c.A.A.S.A.A.B.L.L.A.A.c.8.B.B.M.t...A 0 f A  .z.c.r.=.6.8.=.=.8.6.8.0.2.V 6 6 B z & c G w..X'.t.8.z.6.s 5 0 j ^ { &.=.&.) j 3 d :.b.' h g 2 R :.f.;.O.R ` (  . .%.=.e.r.r.",
":.r.r.x.A.l.) / '  .A.I.n.l.z.c.B.A.A.A.B.B.B.B.B.n.x.x.B.B.z.l.8.{ M 0 M A ) 8.r.8.=.6.8.&.&.&.&.&.9.} T N B # # c [ N.'.`.z.8.) M M A )  . .&.=.8.6.*./ d &.K.n.l.P e e P ^ *.h j ' *.%. . .|  . .%.*.",
"| %.:.e.*.r. .A | *.C.P.A.A.A.B.B.A.A.A.A.:.l.:.O.%.>.b.>.,.%.*.T.' / f M A A ^ { &.6.&.=.&.{ ) ) ] } } T N 7 # 6 [ s.S./.z./ 0 0 A ) {  . .&.=.8.8.8.=.d 0 l.XXb.:.>.u 4 h *.%.4 ^ :.:.*. .|  . . . . .",
"' %.*.) j :. .A *.l.l.A.A.I.z.r.A.A.A.A.b.| b.%.g P P O.h.' l.n.' ' m.c.8.) / M M M ) &.=.8.&./ M s s s 7 8 8 7 n X.t.V.=.f f / ] ..=.6.8.=.=.8.r.r.r.=.A 0 8.I.b.' %.g e P ;.^ j *.r.:.:.*.) ) '  . .%.",
"|  . .) A  .=. .x.*. .:.n.P.:. .n.n.x.x.@.-.;.@.$.+._ O.v.:.l.l.' b.%.>.>.:.r.&.{ j 5 M )  .&. ./ s k k 8 8 k S ] &.6.8. . .r.t.8.6.c.B.z.r.8.r.r.t.t.=.A ( A.I.v.' ^ e a _ ' ( :.:.:.r.r.r.=.{ ) / {  .",
"' | ' ) / ) r.r.%.Z Z l.U.r.%.l.c.n.n.:._ -.P _ o.I ` %.-.;.n.:.l.l.P e ( l.z.z.8.) ^ s a a / {  .{ / T M / { ] /  ...*.r.z.z.c.z.r.M.B.c.z.z.z.z.z.t.*.A  .L.L.:.' h ; g ' d %.:.*.:.8.r.r.t.:.) D / ) "
};
