/* XPM */
static char *bb_64[] = {
/* columns rows colors chars-per-pixel */
"36 64 232 2 ",
"   c #0C0702",
".  c #150C02",
"X  c #190F02",
"o  c #1C1104",
"O  c #1C1309",
"+  c #231504",
"@  c #261905",
"#  c #2B1B04",
"$  c #21170A",
"%  c #251909",
"&  c #2B1D0A",
"*  c #2B1603",
"=  c #321D05",
"-  c #361A07",
";  c #271D10",
":  c #332106",
">  c #3C2405",
",  c #34230C",
"<  c #3A260B",
"1  c #3D2A0D",
"2  c #3E2807",
"3  c #2F2212",
"4  c #382914",
"5  c #441E09",
"6  c #4D1E09",
"7  c #461C07",
"8  c #501F0A",
"9  c #422606",
"0  c #452A05",
"q  c #4C2E05",
"w  c #4D220B",
"e  c #432B0D",
"r  c #4A2E0B",
"t  c #42250B",
"y  c #53220C",
"u  c #5C250D",
"i  c #582C0D",
"p  c #4E3006",
"a  c #4C320D",
"s  c #54350A",
"d  c #5B3A0C",
"f  c #57360C",
"g  c #432E13",
"h  c #4F2E13",
"j  c #4B3313",
"k  c #4A3619",
"l  c #4E391B",
"z  c #453318",
"x  c #563913",
"c  c #5C3D16",
"v  c #5B3519",
"b  c #533B1B",
"n  c #5B3E1B",
"m  c #573515",
"M  c #562E1D",
"N  c #64290E",
"B  c #623E0C",
"V  c #652C12",
"C  c #6B2E13",
"Z  c #6C3115",
"A  c #663B14",
"S  c #643817",
"D  c #733215",
"F  c #753519",
"G  c #7C3A1D",
"H  c #78381A",
"J  c #722913",
"K  c #523A21",
"L  c #493720",
"P  c #683D21",
"I  c #5C421E",
"U  c #56401E",
"Y  c #64410F",
"T  c #6A430E",
"R  c #6B4413",
"E  c #64441C",
"W  c #6B451B",
"Q  c #6C491C",
"!  c #674517",
"~  c #734D1C",
"^  c #754816",
"/  c #7B531D",
"(  c #7D5116",
")  c #724E0E",
"_  c #5B4423",
"`  c #584425",
"'  c #564639",
"]  c #624622",
"[  c #634924",
"{  c #6C4C23",
"}  c #654D2A",
"|  c #6A4D29",
" . c #6C4124",
".. c #734E21",
"X. c #784826",
"o. c #6D522C",
"O. c #6D5026",
"+. c #745226",
"@. c #7A5524",
"#. c #73562C",
"$. c #76582F",
"%. c #7C5B2C",
"&. c #7B572A",
"*. c #6C5433",
"=. c #6C5635",
"-. c #715731",
";. c #755A34",
":. c #7A5D35",
">. c #745D3A",
",. c #7A5F39",
"<. c #79453D",
"1. c #7D6136",
"2. c #7D623A",
"3. c #77613F",
"4. c #584F4A",
"5. c #7D6441",
"6. c #746344",
"7. c #796F61",
"8. c #6C5B46",
"9. c #813B1D",
"0. c #842F19",
"q. c #833E21",
"w. c #8C3828",
"e. c #9C3523",
"r. c #815D0F",
"t. c #845A19",
"y. c #8D4B1C",
"u. c #886215",
"i. c #976A13",
"p. c #9E7113",
"a. c #9C700F",
"s. c #A57914",
"d. c #854123",
"f. c #8C4325",
"g. c #8A4927",
"h. c #924A2A",
"j. c #944B2C",
"k. c #835B25",
"l. c #835D2C",
"z. c #845428",
"x. c #825E36",
"c. c #9A5933",
"v. c #A44923",
"b. c #84612E",
"n. c #8C632D",
"m. c #8C6127",
"M. c #846333",
"N. c #8A6533",
"B. c #8C6935",
"V. c #82653C",
"C. c #8B653A",
"Z. c #85683E",
"A. c #8B6B3C",
"S. c #946C34",
"D. c #9A6F33",
"F. c #936D3B",
"G. c #976A35",
"H. c #9C7135",
"J. c #9B743B",
"K. c #96713B",
"L. c #91672E",
"P. c #A37A3E",
"I. c #A37839",
"U. c #826741",
"Y. c #856A42",
"T. c #896D43",
"R. c #846E4B",
"E. c #8B7046",
"W. c #8C7249",
"Q. c #947243",
"!. c #997543",
"~. c #947349",
"^. c #9D7C4B",
"/. c #9A7947",
"(. c #887454",
"). c #927953",
"_. c #9C7C53",
"`. c #997F59",
"'. c #936E4E",
"]. c #A27C43",
"[. c #A37E4B",
"{. c #AD8214",
"}. c #B28818",
"|. c #9A8159",
" X c #AB8244",
".X c #A2814E",
"XX c #AC854B",
"oX c #A98348",
"OX c #B48C4D",
"+X c #B28843",
"@X c #A48453",
"#X c #AC8D5B",
"$X c #A78857",
"%X c #B38D53",
"&X c #B38F59",
"*X c #AF905C",
"=X c #B59056",
"-X c #B99356",
";X c #B3925C",
":X c #BA9559",
">X c #BE985C",
",X c #9C8764",
"<X c #A78F66",
"1X c #AE9161",
"2X c #A7926D",
"3X c #B29362",
"4X c #B69867",
"5X c #BC9B64",
"6X c #B5996B",
"7X c #BA9D6C",
"8X c #B49667",
"9X c #AA9775",
"0X c #BA9E72",
"qX c #B09D7A",
"wX c #BEA06E",
"eX c #BCA173",
"rX c #BEA47A",
"tX c #C19B5E",
"yX c #C39D63",
"uX c #C5A36C",
"iX c #C2A574",
"pX c #C1A67A",
"aX c #C5AA7D",
"sX c #C9AC7C",
"dX c #C7A876",
"fX c #C5AB82",
"gX c #C9AE83",
"hX c #CCB185",
"jX c #CDB38A",
"kX c #D1B68C",
"lX c #D3B88E",
"zX c #D4B991",
/* pixels */
"T.W.T.E.T.T.T.T.T.T.Y.Y.T.Y.Y.Y.Y.U.U.U.U.5.2.=.k K -.;.U , # O O .     ",
"Y.Y.Y.Y.U.U.U.Y.U.U.U.V.U.U.U.U.U.2.,.,.,.>.>.[ g b o.#.U & O @ O     . ",
"T.T.T.T.A.T.T.Z.T.A.Z.A.U.A.U.V.V.:.2.M.,.:.:.n r I #.;.U & 3 % .   . 3 ",
"5XyX5X5X5XtX:X:X:X:X-X=X%X%X&X&X%XXXXX[.[.].[.D.n.l.&.$.#.k & O .   O O ",
"-XyXyXyXtX:X-X-XOXOXXXXXoX[.].].J.F.S.B.B.N.l.k.@.Q +.$.#.k @ o O   $ O ",
"S.P.XXXX X].].P.L.N.L.n.l.l.z.z...^ ^ W R A S c d a E $.O.g & o O O ; $ ",
"/ L.P.].P.J.K.D.d.S ^ W H A A A A A A V i i i i 9 9 I %._ j & o O O 3 $ ",
"@.k.D.D.S.C.N.c.d.C d.G Z V N N C V u y 6 6 6 5 # - a +.I U & o O O O O ",
"^ / t.^ W Q Q z.d.Z D Z V C V V u 8 8 y y y y - + @ < o._ U & @ O . . O ",
"^ ( i.T 9 r f H G Z H H V V D Z V V J Z N y u 5 o o # O.O.U @ % o X . O ",
"t.p.s.i.( g.h.g.F F G 9.9.q.G H D D D u 6 8 N 7 X . O #.o.k O % o o O O ",
"i.s.s.p.y.f.c.j.h.d.H F V V V V N u 6 6 u V C - . . o O.O., o @ O O . O ",
"a.{.u.T f.h.g.h.9.D D C N V V N u u N F w.G 5 + . . o +._ @ o @ O o . . ",
"m.i.B B g.j.j.f.9.D D D J C V C F G w.h.d.D - X . . X #._ + @ O . o .   ",
"Q.G.k.y.f.f.f.f.q.G H G G F G q.f.q.w.q.G F g & . X X -.*.& # o . X . . ",
"c.F.&.r S G 9.G H D V y 5 5 6 y i y y 5 K k *.k . . X o.Z., o o o o o O ",
"/ { b * < # * - < * + + = @ % 4 # , & 3 5.>.>.4 . . X | !.z @ O @ # o o ",
"b.g , % @ + + * , @ + o , 4 z 1 # # % 4 U.R.>.O . X X ] !.n @ # o & o O ",
"W.4 4 3 + + + + @ o o @ 4 z 1 # * + o * K >.*.$ . X X _ ].] # + o @ o X ",
"/.U 4 3 * + + + @ @ : 1 ] 2.2.] e @ X X o 4 ` ; . X X _ /.O.# + @ @ o . ",
"}.{.u.s * @ + @ @ # k A.$X1XwX.XE = X X . . & o . . . b /.#.# @ @ @ o o ",
"}.{.}.s.p # @ @ # 2 1.#X*X*X$XQ.E = X o o . . . X o X b ].B.k : : # o o ",
"p.p.s.{.) : # @ , o..X.X*X.XN.+.j * + , + X X o < , @ l ].J.@.2 2 2 o o ",
"{.p.a.u.r.p # : U .X;XwX;X~.O.a < o < < X + + < :.>._ I ].J.R s p # X . ",
"u.( ( u..X2.` 1 1.4XwXrXwX.X$.2 + + < + o o + { $X_.c.Z. Xn.Y B 0 o o . ",
", : 1 |.2X,X|.I .X5XsXdX5X#X1.a * # # = + X = %.^.~.~.C.].k.Y s # o o . ",
"=.` |.9X<X|.|.} .XuXsXwX3X*XB.U 9 j 9 # + + # j &.;.x.C.J.Q d p @ o o o ",
"2X2XqX9X,X|.3.*.1.wXsXdXwX*X.X[ x E Q g + # # : 1 a V.].k.Y Y < o o o o ",
"<X9X9X9X,X,X3.*.1.5XdXrXwX>X.X$.E { @.:.n , # : : r { l./ R d # o o o X ",
"R.R.2X9X2X,X3.` 1.5XeXeXwX3X.X.X$.+.M.C.M.| >.=.} _ [ | M.Y a @ o o o . ",
"|.8.R.9X,X|.>.` $.3XwXwX7X5X4X$XQ.$.+.:.$.:.0XfXrX<X).~.K.Y 2 @ @ o o o ",
"|.|.3.3.,X6.=.` O.$XwXwX7X7X7X*X@XV.n b c :.pXjXzXjXrX1X[.Q 0 @ # o o o ",
"` >.>., ` 2.=.} | @X;X3X4X3X#X@X$X~.| b U 1.rXzXzXlXgXeX$XQ a & @ o o o ",
"g e b & % L -.[ [ C._.;X7X7X_.C.[.[.x. .T.|.gXzXzXzXgXeX$X~ a % @ o o o ",
"G S e # @ # _ ` _ _.pXfXiX0XQ.M./.[.~./.0X#XrXzXlXlXgXeX*X/ a # o o o . ",
"v.f.V < & + # l _.hXhXgXpX@XM.V.T.x.U.0X6X-.<XjXjXjXrXwX*X%.d : @ o o . ",
"g.d.G p j < # l eXrX#XiXwXQ.#.%.S j -.aX|.*.wXkXlXjXrXeX=X$.Y e # @ o @ ",
"8.M 6 w x b # _ eXrX[.;X4XA.{ I j b `.rX|.|.fXzXjXfXrXeX=X%.Y d p 9 # : ",
"' ' 6 - - < # b 6XfX0X8X$XB.[ I ;.@X0X0XqXrXzXzXjXaXrXeX*X%.Y d d p : > ",
"(.(.M - + + # g _.7X0X1X@X@X|.*XpXfXgXfXjXjXlXkXgXaXrX6X*X%.Y Y d p # # ",
"7.(.w.u * + * - -.*X6X*X3XeXwXsXgXgXhXlXlXkXhXhXgXfXeX3X*XM.Y d d p > # ",
"4.<.e.0.8 $ + + 1 2.#X4XwXeXeXsXhXgXlXzXhXkXkXkXjXfXrX3X#XA.Y d d Y I k ",
"4.w.e.J 7 * + + # 1 1.@XwXwXeXhXgXhXlXlXhXhXkXkXjXfXrX1XoXK.Y s p Y O.o.",
"x.G y K & + + * # # , I Z.$XeXaXsXsXsXsXgXsXgXsXaXeX6X.X!.J.Y Y s s p 0 ",
"c : , *.` # + + @ # # : f E E.8XeXeXeXiXiXiXiXwX5X1X.X%.@.P.T B s s p p ",
"j e } 2.2.} k < * @ # # 2 2 a M..X*X5XwX7X5X4X;X$X^.1.x Q P.T d s s p p ",
"< _ T.*.2.).T._ @ @ # * : 1 U /.Y.[ Q.^..X.X[.K.M.Q a 2 U P.R A s p p p ",
"g j $.A.).Y.| b j 2 : < 0 ! &.%.O.x @.n.b.L.N.n.k./ ~ Q @. X( B s p p 0 ",
"+./ @.l.L.b.k.b.k.b.m.@.m.L.H.D.H.H.P.P. X X X X X XI.I.I.%X@.T d p 0 0 ",
"D.I.P.+XOXOXOXOX+X+XI.H.H.H.I.H.H.H.H.D.D.S.S.D.H.H.H.m.n.;Xm.) Y p 9 > ",
"oX X X].].!.!.K.K.B.B.N.N.A.N.N.V.b.1.%.#.:.;.M.b.%.K.1...%XS.) B s p 2 ",
"V.2.M.V.1.%.;.-.$.$.#.#.$.1.1.1.2.1.$.$.#.:.:.b.N.M.F.*XQ.;XJ.~ d p 9 > ",
"2.2.1.2.:.,.;.;.$.-.-.-.$.1.1.1.1.;.$.$.$.>.2.b.N.N.F.1XeX4XH.k.R d 9 > ",
"V.2.2.2.:.:.:.;.$.$.$.;.1.2.Z.1.1.1.;.;.;.>.2.V.B.M.M.*XeXwXS.@.R d 0 - ",
"5.2.2.2.,.,.,.:.1.1.;.1.1.1.Z.2.;.;.1.2.#.-.3.C.N.%.%./.wXdX;Xb.{ c s r ",
"U.U.U.2.1.2.1.:.1.*.o.#.$.2.2.2.1.1.*.#.} =.3.M.%.b.%.%.#XuXuXXX@.~ W E ",
"U.U.Y.2.V.,.,.:.*.} o.o.-.2.2.2.:.-.#.o.*.=.2.A.N.M.%.@.B.wXuXyX].@...Q ",
"2.2.2.2.:.;.;.>.-.o.#.#.=.2.2.2.;.;.-.-.-.;.3.N.B.B.%.#.+./.uXyXtXJ.....",
">.o.-.:.:.;.:.;.;.1.1.2.2.2.2.2.,.,.,.;.;.;.5.A.A.B.%.+.+.+.%X>X:X-XS...",
"| b M ] ;.,.2.,.2.1.2.2.Z.Z.Y.Z.V.V.2.2.>.>.U.C.B.M.%.+.{ E b.%X-X-X%XB.",
"X.P m m ] ,.V.V.2.Z.2.Y.Z.A.Y.T.Z.V.1.1.;.;.2.M.M.M.1.{ W Q E N.OX-X-X%X",
" .m M m m } :.,.Z.5.A.Y.Y.Y.T.T.T.U.2.:.;.-.,.M.%.%.%.+.{ { E Q H.OX&X%X",
"P h S i v x 1.2.Z.Y.T.E.E.E.E.T.Y.U.2.,.*.-.2.M.%.&.@.O.Q Q E A ~ ].OX%X",
"v v P S v x *.2.Z.T.W.E.W.W.W.E.Y.Y.2.;.o.=.Y.%.%.#.+.Q { ! I E x @.XXXX"
};
