/* XPM */
static char *fi_linus_64[] = {
/* columns rows colors chars-per-pixel */
"64 36 212 2 ",
"   c #0D1215",
".  c #141619",
"X  c #16191B",
"o  c #1A1D1E",
"O  c #121416",
"+  c #221C1A",
"@  c #1D201F",
"#  c #1B1E21",
"$  c #161B2A",
"%  c #181C27",
"&  c #1E1E31",
"*  c #201F33",
"=  c #1E2122",
"-  c #1C232B",
";  c #17252C",
":  c #1C2A34",
">  c #1D333B",
",  c #222424",
"<  c #2C2421",
"1  c #23262A",
"2  c #26292B",
"3  c #292C2D",
"4  c #262827",
"5  c #322623",
"6  c #342A26",
"7  c #3B2E29",
"8  c #382C28",
"9  c #2E302F",
"0  c #3C312C",
"q  c #232236",
"w  c #2B2E31",
"e  c #252639",
"r  c #29293C",
"t  c #262B37",
"y  c #2E3133",
"u  c #2A353B",
"i  c #24343B",
"p  c #323534",
"a  c #3C3532",
"s  c #363836",
"d  c #3C3936",
"f  c #33363A",
"g  c #36393B",
"h  c #3C3D3B",
"j  c #432E29",
"k  c #44332D",
"l  c #49362E",
"z  c #443631",
"x  c #4A3731",
"c  c #433A36",
"v  c #4D3A33",
"b  c #423E3B",
"n  c #4A3F39",
"m  c #513D35",
"M  c #563A34",
"N  c #3D403D",
"B  c #44413E",
"V  c #4D423C",
"C  c #54433B",
"Z  c #5B443C",
"A  c #5A443B",
"S  c #63453E",
"D  c #1E3941",
"F  c #2C2B40",
"G  c #2B3942",
"H  c #3A3E44",
"J  c #363945",
"K  c #3B3B58",
"L  c #3E4144",
"P  c #3D424B",
"I  c #38454B",
"U  c #39515B",
"Y  c #444442",
"T  c #4A4642",
"R  c #464847",
"E  c #4B4946",
"W  c #43464B",
"Q  c #46494C",
"!  c #4C4D4B",
"~  c #5C4C43",
"^  c #514E4B",
"/  c #5B4F49",
"(  c #514944",
")  c #4F504E",
"_  c #53514D",
"`  c #5D544D",
"'  c #454A52",
"]  c #4A4E53",
"[  c #444657",
"{  c #4D5155",
"}  c #4D525A",
"|  c #545553",
" . c #5A5652",
".. c #565856",
"X. c #5C5A56",
"o. c #51555B",
"O. c #56595D",
"+. c #5B5C5B",
"@. c #624B42",
"#. c #694B44",
"$. c #635046",
"%. c #65544B",
"&. c #6B564C",
"*. c #6A584E",
"=. c #77554D",
"-. c #655C54",
";. c #6B5C53",
":. c #615E5A",
">. c #6B5F59",
",. c #735C52",
"<. c #7C5E55",
"1. c #704E47",
"2. c #5F605E",
"3. c #64625E",
"4. c #6B645C",
"5. c #6F6057",
"6. c #746056",
"7. c #74655C",
"8. c #7A655A",
"9. c #7D695E",
"0. c #786459",
"q. c #5A5D62",
"w. c #565A60",
"e. c #46516B",
"r. c #5D6164",
"t. c #5D646A",
"y. c #4F677B",
"u. c #646563",
"i. c #6A6661",
"p. c #676865",
"a. c #6B6A65",
"s. c #636669",
"d. c #66696C",
"f. c #6C6D6A",
"g. c #736C64",
"h. c #7B6D63",
"j. c #726F69",
"k. c #6E706E",
"l. c #7B7067",
"z. c #74726D",
"x. c #7D746B",
"c. c #7E786F",
"v. c #6C7174",
"b. c #757573",
"n. c #797671",
"m. c #7C7A74",
"M. c #7C7D7A",
"N. c #767876",
"B. c #6E6F70",
"V. c #845E56",
"C. c #83695F",
"Z. c #87655C",
"A. c #836D62",
"S. c #8B6B63",
"D. c #847165",
"F. c #83756B",
"G. c #8B766A",
"H. c #84786E",
"J. c #8C796D",
"K. c #887166",
"L. c #90766B",
"P. c #847C73",
"I. c #8B7D73",
"U. c #827F79",
"Y. c #927D72",
"T. c #926F66",
"R. c #8C8075",
"E. c #84827C",
"W. c #8C847C",
"Q. c #948276",
"!. c #93867B",
"~. c #98867A",
"^. c #94897E",
"/. c #9B8A7D",
"(. c #998276",
"). c #527E89",
"_. c #7C7D80",
"`. c #588998",
"'. c #55838E",
"]. c #7E8C8D",
"[. c #858582",
"{. c #8A8781",
"}. c #8C8984",
"|. c #8E8D8A",
" X c #878888",
".X c #948C82",
"XX c #9C8D81",
"oX c #908F8C",
"OX c #9C9185",
"+X c #93918C",
"@X c #9B948B",
"#X c #979086",
"$X c #9D9A94",
"%X c #9E9E9A",
"&X c #979592",
"*X c #A09489",
"=X c #A49E96",
"-X c #A19F99",
";X c #A08F83",
":X c #ABA49C",
">X c #A6A29B",
",X c #A9A9A5",
"<X c #B0AFAA",
"1X c #AEB1AE",
"2X c #B3B5B2",
"3X c #BABCB8",
"4X c #B5B3AE",
"5X c #C1C2BD",
"6X c #C5C6C1",
"7X c #C9CAC6",
"8X c #CDCEC9",
"9X c #C7C8C3",
/* pixels */
"M.m.E.}.{..X.X^..X=X:X[.[ K K K y.'.U X X . X o o o o o @ @ = , @ @ @ 4 3 p N s N N N 9 @ = N N B N z.R.c.E.U.E.W.E.E.[.v.3X6X6X",
"z.U.n.H.Y.I..X}.^.@X=X:X_.[ K ).'.).> . X X X o @ @ = = = = = = @ @ @ 4 3 9 9 9 9 N N 9 = @ 3 N L 3.R.c.c.R.m.m.E.[.}._.t.3X8X9X",
"2.n.P.h.I.!.W.U.x.^..X=X,X_.).).'.I o X   X X X X @ = @ = = = = = , = 4 4 9 9 9 N N N N , = 9 N M.^.x.c.E.E.c.c.E.E.|.N.t.2X6X9X",
"{ u.M.c.n..X.XF.8.S.!.@X-X,XoX).I o o o X X o o @ 4 2 4 2 w 3 3 3 9 3 s N N B B ! ) 2.R 2 9 N ].<XR.z.x.c.U.c.E.}.E. Xt.t.2X9X6X",
"J } d.U.F.P..XI.L.S.Y.!.*X:X>Xw.9 3 3 2 , @ , 3 9 s N p p N N s 9 N N L R ) 2.2.2.p.2.) : N E.<X#Xx.x.c.R.c.c.W.E.E.E.} t.1X9X7X",
"F J O.b.U.l.I.!.Y..XoX.X.X@X=Xf.9 9 9 i 3 2 4 9 p p y 9 u p N L R R L 2.2.p.f.k.U.}.U.p.N N %X@Xc.z.l.x.H.R.E.W.E.[.M.] r.1X9X9X",
"F F H q.M.U.F.I.S.Y.@X@X.X.X$XF.I R R R R R N ) | ..2.2...2.u.p.f.k.b.E.|.-X>X&X/.=X4X-X2.2.+Xc.l.l.h.x.R.R.3.p.E. Xd.U t.2X7X6X",
"e e r W p.U.U.h.L.S.!.OX.X.X.XI.p.p.f.p.p.f.p.u.p.z.z.z.z.m.M.E.M.E.+X&X-X,X@XJ.R./.$X/.^.W.W.E.R.l.l.R.R.g.B Q M.|.t.} t.1X7X8X",
"q q q r Q k.M.3.x..X.X{.Y..X^.U.p.p.p.p.p.k.z.b.b.M.M.M.M.E.E.[.|.oX&X%X-X$XR.K.Q./././.*X/.*X/.^.W.H.P.P.c.n.m.E.&Xd.w.t.1X9X9X",
"q q e e G { z.c.i.{.OX}.I.!.W.B.p.f.f.k.k.k.p.p.f.b.E.E.E. X|.oXoX+X&X%X$XQ.R.(./././.*XOX*X@X/.OXOX^.I.F.I.W.U.}.>Xv.o.t.2X8X8X",
"q q e r r J O.M.E.E.#X.XI.W.W.b.k.k.b.b.N.p.N N N N 4.}.[. XoX+X+X&X%X-X/.R.~.~./././.*X/.*X/././.OX.XW.F.P.E.U.+X3Xv.o.t.1X5X2X",
"q q e e q & J u.E.E.W..X{.E.W.E.b.k.b.N.N.N.) N N s _ z.a.a.f.W.}.|.+X@X/.~.G.,.R./././././././././.XX.XR.I.P.E.%X5Xv.] t.%X X].",
"q q e e & ; i P j.U._.W..XI.[.E.E.N.N.b.a.-.A A C Z ;.6.*.*.~ _ 2.2.7.Q.~./.A.=.Q.~./././././.^././.^.^.W.H.m.E.,X6Xv.w.N. XN.v.",
"q q q & - : > P d.U.{.U.{.!.W.I.c.m.k.2.V V V A S %.6.6.,.9.9.0.4.-.8.Q.~././.(././././././.~.Q.W.!.!.^.F.h.P.{.,X,X[.N.N.d.t.B.",
"* q q $ : > u O.z.j.W.E.E..X{.I.c.c.g.V 0 V ,.D.R.D.8.C.C.D.A.A.9.&.0.R./.~.(.(.~././././.Q.R.R.H.R.W.W.P.h.m.oX|. X_.b.k.r.r.s.",
"* * $ ; > > P o.p.u.B.{.W.{.#XW.R.c.Z 7 7 ;.C.<.C.C.0.D.R.R.G.D.R.,.&.R.Q.Z.Z.Z.T.(./.Q.Q.D.D.9.D.H.R.R.P.P.E.+X Xs.t.s.r.O.O.r.",
"* $ ; > > u W ! O..._ n.}.E..X.XR.x.V < C C.1.Z A C ,.D.~.~.~.R.Q.7.S G.Z.V.V.Z.Z.L.R.D.l.5.%.0.l.F.F.R.P.P.E.}.d.w.s.j.d.w.s.d.",
"$ $ > > i o.2.| N y 9 ! E.}.W..XW.R.-.8 *.8.M l C 6.J.Q././.;X/./.9.*.0.8.=.=.=.V.Z.D.D.R.S V C *.l.x.c.c.m.E.s.q.r.o.p.j.f.z.b.",
"$ > > > { z.f.3.E 4 4 s 3.W.W.E.^.R.h.C $.1.M C &.D.Q./././.OX/./.D.0.S S S S S S &.R.R.R.l.S V ~ l.l.x.l.m.f.' q.o.[ q.f.r.r.p.",
": D > G 2.k.k.3.! h 9 s Y k.}.E.W.W.9.` $.C m $.h.R.Q.!./.~.~././.R.C.S S S A S &.0.h.F.l.F.R.l.H.l.h.z.l.m.o.] ] [ P } r.] ' } ",
"D D > Q u.2.f...R _ T h N ! n.W.R.W.F.%.$.A $.7.F.J.D.D.D.S.A.L.~.(.K.=.S S C A S 5.7.x.7.;.7.c.R.F.l.g.c.u.L } q.} [ P q.{ ' ] ",
"D > 2 2.u.2.2.2.3.X.X.! h B +.E.W.R.W.4.&.6.0.D.G.8.S S @.@.@.6.G.R.R.C.&.A l v C ` 4.7.;.` -.7.l.R.R.c.b.R L o.r.} ' o.} ' } O.",
"> ; u 2.p.3.2.f.3.+.3.3.^ B E i.E.R.R.H.9.D.K.D.9.@.j 7 l Z ~ A &.0.<.=.&.$.C k z V _ ` -.-.;.4.l.c.c.c.) y P { O.o.q.q.O.{ +.v.",
": = p ..u.u.a.f.3.4.4.+.` E B E 4.n.x.R.R.G.D.0.$.j 8 < < C v k C A A S A A C 0 a 0 B C ` 5.;.5.l.R.c.3.3 y I ! u.{ } s.w.d.r.u.",
"    2 R 2.2.f.z.f.4.3.p.3. .R N ) z.c.j.h.D.A.6.V 5 5 8 5 j k l l k l A C k k V 8 8 p s V E ` 4.h.n.i.s 1 1 H +.s.' ' s.q.r.s.q.",
"    X w R 2.p.f.3.a.j.a.3.| E Y N ..n.c.g.7.7.*.k 5 7 j v C @.C V j j l j j 6 k < < c 6 < a _ 4.g.i.s w w # ! q.' J q.b.q.O.o.o.",
"; @ X = y R 2.3.p.z.f.4.3.+.2.X.R B 3.n.c.j.-.~ k < 8 C ~ %.9.~ S C k V l C k 5 + < a 6 4 V 3.4.4.a # p 1 1 | a.o.' p.O.O.s.q.} ",
"2.2.L 2 2 s 2.b.n.c.z.f.u.3.4.3. .T B 3.x.j.7.-.V 5 + 5 C 0.D.0.A.9.&.Z Z *.S C 8 6 0 ( 5.a.z.l.b # # L f % | +.{ { f.O.q.{ o.q.",
"3.2.2.N p N ..n.n.n.n.f...3.4.4.4.2.T B N 4.4.-.%.C 6 0 %.9.G.A.V.R.R.Z.R.R.V.&.z 6 T 7.j.c.j.Y # X % f f - ! +.W Q O.u.a.O.o.p.",
"@ 2 2.! B B 2.n.z.n.b.4.a.a.3.a.a.4.:.B d +.l.4.` ~ V ` 7.5.h.F.C.V.V.V.V.R.R.6.8 d :.j.x.a.d . . . = J t 1 ..+.' ' Q { 2.f.f.j.",
"@ ) f._ B B 3.n.n.n.z.z.f.g.g.g.j.a.4...b E i.g.3.` ` 4.g.l.h.h.&.S S S S V.R.6.n  .g.j.X.3 O . X # y { L w Q ] Q H L Q { u.k.z.",
"..3.f. .R R 3.c.n.j.f.z.z.z.j.z.j.4.i.i.E s E 4.4.3.2.4.g.g.h.h.S A S A M A 6.R.` 3.a.E 4 , 4 1 1 1 h O.Q w H { Q H L L ] ..3.p.",
"p.3.a.:.T E i.b.j.f.j.n.n.j.z.z.j.i.j.f.X.Y a E :.3.:.:.3.-.:.5.$.C v j j S D.H.2.2.B p N V ^ ^ B 9 ! 3.R w h ..| W Q ! | | +.3.",
"..+.3.:.E ^ u.b.j.f.j.j.j.a.i.2.+.u.3.:.:.^ b b T _ ` -.X._ ^ _ Z C l < k ;.x.4.V B V ! _ X.3.2.^ N 4.f.o.u f ] H W X.| _ _ _ _ ",
"_ _ E | ! X.:.f.b.u.f.j.j.O.q.W P ] +.+.+.| X.| ! T B E | ` E c N 7 6 0 V 4.3.V E _ 2.3.2.2.3.3._ B j.p.! f N ! Q +.:.X._ E _ _ ",
"_ ! E ! X.X.E u.f...p.a.:.} ] [ W ] O.u.:.O.W | 3.:.E s h E _ B B N V V !  .2.3.4.3.7.a.4.4.4.4._ _ n.u.I w L Y ..X.:.:.3._ T E "
};
