/* XPM */
static char *fibi_64x64[] = {
/* columns rows colors chars-per-pixel */
"36 64 233 2 ",
"   c #0E090D",
".  c #0D060C",
"X  c #130A0E",
"o  c #1A0A0F",
"O  c #10070D",
"+  c #140B11",
"@  c #1B0D12",
"#  c #151212",
"$  c #191315",
"%  c #1E1D1A",
"&  c #1A1917",
"*  c #240E13",
"=  c #231315",
"-  c #2B1316",
";  c #24131B",
":  c #2B1519",
">  c #241C1C",
",  c #2C1A1D",
"<  c #331A1D",
"1  c #36181C",
"2  c #22221E",
"3  c #2C1C21",
"4  c #2A1724",
"5  c #321C22",
"6  c #3B1C23",
"7  c #371C28",
"8  c #252521",
"9  c #272923",
"0  c #2A2C26",
"q  c #2C2D29",
"w  c #2A2423",
"e  c #372628",
"r  c #2E322A",
"t  c #2B3026",
"y  c #32342E",
"u  c #35372F",
"i  c #353631",
"p  c #363A33",
"a  c #3A3C35",
"s  c #3C3D38",
"d  c #3B3633",
"f  c #3E2632",
"g  c #1F211B",
"h  c #421D27",
"j  c #5B1E32",
"k  c #43242A",
"l  c #47282B",
"z  c #452834",
"x  c #562637",
"c  c #4A3839",
"v  c #54353C",
"b  c #593539",
"n  c #56262C",
"m  c #682839",
"M  c #752C3B",
"N  c #772B3B",
"B  c #673038",
"V  c #3D423A",
"C  c #3B4136",
"Z  c #42433E",
"A  c #49433C",
"S  c #57423E",
"D  c #5B3847",
"F  c #533245",
"G  c #6A2C43",
"H  c #762D44",
"J  c #683947",
"K  c #783448",
"L  c #783755",
"P  c #683E59",
"I  c #454441",
"U  c #464A42",
"Y  c #4B4B44",
"T  c #4B4D4A",
"R  c #4A4643",
"E  c #564647",
"W  c #4C504B",
"Q  c #56544E",
"!  c #575955",
"~  c #5F4F52",
"^  c #66484C",
"/  c #684A54",
"(  c #764959",
")  c #685857",
"_  c #775456",
"`  c #72484D",
"'  c #5D625C",
"]  c #68635D",
"[  c #794867",
"{  c #7A5866",
"}  c #6D5862",
"|  c #646666",
" . c #776567",
".. c #7B6C73",
"X. c #6D7171",
"o. c #706E73",
"O. c #5E6160",
"+. c #83364C",
"@. c #8B2C54",
"#. c #883A55",
"$. c #96345D",
"%. c #902E56",
"&. c #9C3663",
"*. c #993A65",
"=. c #883A65",
"-. c #A83E75",
";. c #A2386A",
":. c #89435B",
">. c #914A5E",
",. c #8A4966",
"<. c #934666",
"1. c #855568",
"2. c #97576A",
"3. c #8C5678",
"4. c #965A77",
"5. c #974A75",
"6. c #AC437C",
"7. c #A4497F",
"8. c #A45077",
"9. c #886674",
"0. c #95667A",
"q. c #8B6C71",
"w. c #A56779",
"e. c #A87676",
"r. c #B53D87",
"t. c #BE3D86",
"y. c #B53E88",
"u. c #BE3F89",
"i. c #C13E87",
"p. c #C13F88",
"a. c #9A5D82",
"s. c #AE4787",
"d. c #B24682",
"f. c #B44985",
"g. c #B5428A",
"h. c #BB428C",
"j. c #B74D8B",
"k. c #A75787",
"l. c #BB538E",
"z. c #BF4691",
"x. c #BC4C93",
"c. c #AD5C91",
"v. c #BD5494",
"b. c #BB5B9A",
"n. c #B35C96",
"m. c #9A6787",
"M. c #997688",
"N. c #9C7F93",
"B. c #9F6B93",
"V. c #A76887",
"C. c #A66A93",
"Z. c #B6659C",
"A. c #B5689C",
"S. c #B9639D",
"D. c #AB7799",
"F. c #B47A93",
"G. c #B9739C",
"H. c #B2768C",
"J. c #BB6AA3",
"K. c #AE7CA2",
"L. c #B67EA3",
"P. c #C2448D",
"I. c #C2488F",
"U. c #C34087",
"Y. c #C34691",
"T. c #C34A93",
"R. c #CA4E99",
"E. c #C84C96",
"W. c #C4539A",
"Q. c #CA539C",
"!. c #C45B9D",
"~. c #C95C9E",
"^. c #C25795",
"/. c #C3629B",
"(. c #C45CA1",
"). c #CB5CA2",
"_. c #D05EA4",
"`. c #C562A4",
"'. c #CC6BAB",
"]. c #C967A6",
"[. c #D268AC",
"{. c #CB71AE",
"}. c #C774AA",
"|. c #D16EB1",
" X c #CD71B1",
".X c #CF7FB2",
"XX c #D573B5",
"oX c #D779BA",
"OX c #CE6EB0",
"+X c #7F8386",
"@X c #8F858F",
"#X c #A68598",
"$X c #BA859B",
"%X c #AC8DA3",
"&X c #AE86A0",
"*X c #B987A9",
"=X c #AE92A8",
"-X c #B395AD",
";X c #B999AE",
":X c #BB8CB1",
">X c #BA9AB6",
",X c #BDA2BD",
"<X c #C687AC",
"1X c #C49BBB",
"2X c #CA9CBE",
"3X c #C495B6",
"4X c #D293BD",
"5X c #CD88B4",
"6X c #C5A2BF",
"7X c #CAAABC",
"8X c #BDA3C0",
"9X c #DD84C5",
"0X c #D59CC3",
"qX c #CA9EC0",
"wX c #C4A6C3",
"eX c #CBA4C3",
"rX c #CCACCB",
"tX c #C7A9C7",
"yX c #D2A6C9",
"uX c #D4ACCD",
"iX c #DBA9CC",
"pX c #D8A4C9",
"aX c #D8AFD1",
"sX c #CFB2D1",
"dX c #D3B3D3",
"fX c #DCB2D5",
"gX c #DDB6D9",
"hX c #DBB9DC",
"jX c #D6B1CF",
"kX c #E2B9DD",
"lX c #E0B6DA",
"zX c #E5BDE2",
"xX c #E08ACB",
/* pixels */
"{.{. XOXOX].(.s.g.z.z.y.g.g.g.y.u.z.z.Y.R.R.Q.R.R.Y.p.p.p.p.Y.Y.Y.Y.T.T.",
"{. X X X|.].!.d.d.g.g.g.y.g.y.y.y.z.z.z.R.R.R.R.Y.u.p.p.p.Y.Y.Y.Y.Y.T.T.",
"{. X X XOX].b.s.g.g.g.g.z.y.y.y.y.u.y.z.Y.R.R.R.p.z.p.p.p.Y.p.Y.h.Y.T.T.",
"{. X X'.'.`.v.s.g.g.g.y.r.y.y.y.y.y.y.z.Y.R.R.R.u.u.p.p.p.p.T.z.T.T.T.T.",
"{.{.OX'.`.(.v.g.g.y.y.r.r.r.r.r.y.y.y.z.p.R.R.T.u.u.p.p.p.Y.u.T.I.T.T.T.",
"{.{.J.'.J.b.v.g.g.y.y.r.r.r.r.y.y.y.y.z.Y.R.R.p.u.p.p.p.p.p.E.u.I.z.T.W.",
"{.}.Z.`.(.b.W.g.g.y.r.r.r.r.r.r.y.y.y.u.Y.E.R.u.u.u.p.p.Y.p.Y.E.T.T.T.T.",
"}.}.Z.J.b.b.W.g.g.y.y.r.r.r.r.r.y.y.y.y.z.Y.E.u.u.u.u.p.p.Y.Y.p.P.T.T.T.",
"}.J.b.J.b.b.(.g.g.g.y.y.y.r.r.r.y.y.y.y.T.T.T.u.h.t.p.P.P.P.P.I.T.Y.T.T.",
"}.J.Z.S.b.v.s.x.v.x.x.x.x.x.x.y.y.y.y.z.z.p.z.u.p.t.i.t.h.P.P.I.Y.T.T.W.",
"J.J.Z.S.b.s.$.s.(.(.`.(.(.(.(.(.(.Q.Q.(.).E.u.u.u.p.p.t.P.P.I.I.T.T.z.T.",
"J.Z.Z.Z.n.s.&.j.(.(.).).).).).(.).(.Q.Q.R.z.u.u.u.t.t.t.P.P.I.P.P.I.T.W.",
"J.J.n.J.b.-.@.j.x.x.z.E.z.T.T.p.Y.Y.Y.u.t.h.p.t.t.t.t.u.P.P.I.I.T.T.T.^.",
"J.Z.J.n.x.L j *.W.x.u.y.u.z.x.x.z.z.E.W.).T.t.t.t.t.u.u.U.I.I.Y.Y.T.T.W.",
"J.Z.n.n.s.F o j y.S.(.(.(.(.(.'.`.OX[.XXXXQ.t.t.t.t.p.u.U.I.I.T.T.T.W.W.",
"J.Z.J.c.s.x ; z L r.(.`.OX`.OXOXOXOX|.XX'.T.t.t.t.p.p.P.P.P.I.I.z.T.T.W.",
"J.J.Z.c.7.x 3 7 +.%.-.v.).`.`.`.`.`.[.[.~.T.h.-.t.i.U.P.P.I.I.I.T.E.E.W.",
"J.Z.n.c.=.z 5 5 j @.;.r.^.'.].~.~.~.~.~.~.!.E.p.U.U.U.U.I.I.I.I.T.E.W.W.",
"J.A.Z.c.=.6 5 7 G 4.J.<X4X4X4X.X].~.~.~.~.~.~.E.I.U.U.U.P.I.E.E.W.W.Q.~.",
"Z.A.C.c.k.3.1.m.*X4XpXpXiXiXiXpX5X'.].`._.~.~./.~.Q.E.I.I.E.E.E.R.Q.Q.).",
"Z.Z.A.L.L.}.2X4X0XpXiXiXiXiXiXpX4X5X]./.[.[.{.[.[.[.[._.Q.R.R.R.Q.Q._._.",
"C.C.D.F.w.V.<X6X0XpXiXiXiXiXpXpXiXpX<X/.^./.].|.XXXXXXXXXX[.[.[.~.~.).).",
"k.4.V.4.2.k.&X4XpXuXiXfXlXlXfXfXiXlXiX4X}.^.^.^./.'.XXoX9XoXoXoXXXXX[.[.",
"4.=.:.:.,.4.*X2XpXiXfXlXlXlXkXlXzXkXlXiXiX<X^.l.l.l.^.^./.[..X9XxXxX9X9X",
"=.H H K ,.B.:X3X0XuXfXgXgXkXzXzXzXzXzXzXzXgX4XS.j.j.f.f.f.f.f.I.~.'.oX9X",
"L G G H ,.K.:X3XqXuXaXgXgXgXlXzXzXzXzXzXkXkXfX<Xl.6.f.f.f.f.f.f.f.d.f.j.",
"G m G L a.K.:X:XqXeXaXfXgXzXgXzXzXzXkXlXgXgXdX2XG.6.6.6.f.f.f.f.f.d.6.6.",
"x x m #.a.K.:XL.:X1XyXfXgXgXgXhXlXfXiXiXjXdXuX1X$Xl.6.6.6.6.f.j.f.d.d.6.",
"z x G ,.a.a.K.K.:X:XyXdXgXgXgXfXuX7X6XwXrXuXuX1X&Xw.6.;.;.6.6.f.f.d.d.d.",
"h x L 3.,.P 3.K.:XqXyXaXfXgXfXuX7X>X;X6XeXrXrXtX&X4.<.#.@.+.$.;.-.d.d.f.",
"4 F [ a.L j L C.:XqXyXuXaXdXaXrX6X;X%X;X>X6XtXtX:XV.,.+.N N N N %.;.-.-.",
"; G a.c.L x [ K.qXyXaXaXuXaXaXeX1X%XM.m.0.0.-X,X-XM.1.K N N N N @.$.&.&.",
"4 [ B.D.m.m.C.:X2XuXfXfXjXuXuX6X>X#X1.G J M 0.-X%XM.1.K N m N +.$.$.;.&.",
"z [ a.B.K.:X*X:X2XyXuXfXgXuXtX7XtX-X1.m m B 0.%X#XM.1.K M M +.>.<.*.&.$.",
"f [ a.m.:X>X>X3X1XeXyXyXuXrX6X6XdXsX,X%X0.M.,X,XD.M.1.K M M +.$.&.&.$.$.",
"f [ a.K.L.:X<X3X3X1X1X6XeXeX,XtXdXhXhXdXdXdXrXwX-XM.1.K H N #.*.&.$.$.%.",
"4 F B.:XL.C.H.F.H.F.$X*X3X6XtXrXsXdXdXsXtXwX8X,X>X%X4.:.#.+.:.<.*.%.@.m ",
"; F B.K.D.2.V.G.F.F.$X<X<X;XrXwX,X8X8X8X,X,X,X,X;X%X9.#.#.:.:.#.+.M 6 o ",
"4 F B.B.m.<.2.w.e.$X$X$X%X;XrXrX8X8XtX>X=X-X;X;X;X&Xm.>.:.#.#.K x 1 o o ",
"4 f [ 3.4.+.#.>.>.2.w.2.D.8X8X8X8X,X8X>X#X%X%X-X#X#X0.,.:.#.K 6 @ o o o ",
"4 4 P [ P P L H N >.2.2.#X=X=X=X=X>X>X-X#X#X#X#X#XM.4.,.#.G 6 o * o * * ",
"+ + 4 F F F x j n B ` 1.q.q.M.@X#X@X%X%X%X#XM.M.0.0.2.,.G : X * @ o * - ",
"+ + + 4 7 h 7 7 6 k l b ^ / 3.M.M.M.N.N.@XM...3.{ 1.:.J k @ * * * * * o ",
"+     $ @ * 6 4 h k l k k v / {  .} } { ( / D / J J J l < = = - 1 * * - ",
"+ O + + + @ @ @ < h b z l v ^ ^ D v v v e 5 < 6 k k , : > , < < - * * * ",
"; + . . . + @ . X o 6 v 7 e f f , = > , 3 = < 1 k v l b b l ; 6 ; @ = * ",
"+ + + + . . @ @ o O X f 7 X * = @ o : 1 k e l k b ` ^ ` B e > : z f e e ",
"+ O + @ O . . O = - - < D < : - = < : 1 l n b < 2 5 b 0.l & e d E c % > ",
"@ + + + X O . . X - 1 6 b v < 1 : 1 l b ^ ` D > & c q.) y Z u A c d y 0 ",
"+ + + + X X O O   X = @ < _ e , k c _ _ ^ Y r 2 w ..M.d 0 T u > % & 0 2 ",
"$ + + + * o X X X # # # + D E + 8 y s p y 2 0 w ~ ;X) r 2 2 y 0 > e / S ",
"$ + $ @ o # # #       % # : { q r p 2 s Z p s d @XM.U W t 9 w A E S / _ ",
"4 4 > w 2 > X # $ $ & 9 8 % / ) p p 0 V C ' !  .M.E r Q C Q ) A A A U & ",
"k l 1 , 1 e w 2 8 9 9 p s 8 e { e Q I r 0 i r ..M.5 2 p U U Q I r g a 9 ",
": , w > > , 2 t I i 9 9 r y q / ~ T ! C y 0 0 @X#X2 g g Z q V T Z 0 g a ",
"0 0 8 2 > # 2 2 p q g g 2 q I E { i t r r 2 ^ 7X..g t C s Z y ' ' Y U ' ",
"U r r % & % 8 q y p C r r r C r / / p V Z / q...s r V s W ! q s Q  .S C ",
"U C p q % i U W r q U U p U C p E { F ! q.q.c p U s W y V q s W Q q. .W ",
"9 i V p q V p Z p r r V C r % 8 V { { E R a g a X.V r p q g q 9 C W ' X.",
"I p s V s p i r 9 q 9 8 9 t r U ' } ( q # 2 p p ! T U U r g 9 V C C V y ",
"_ 0 9 d F W V q s & & r 2 0 0 V T E D E t t A C ~ 1. .' r C p O.C C ! ' ",
"e.E y y $ q T ! X.O.U V W U % 8 T Y D { A A W Q Q { ] | X.W O.U r ' W ! ",
"e.e.^ r T q y I O.....U O.V r V I W X.{ ) C p C C V ' C +X+XX.C ! | C 9 ",
"e.e.e.^ W I i 8 3  .D.T T ! U s U s Q / 1.Q Z A C y W 2 | +X+X! ' | V W "
};
