/* XPM */
static char *linus_64[] = {
/* columns rows colors chars-per-pixel */
"48 64 206 2 ",
"   c #080807",
".  c #0D0B0A",
"X  c #130D0E",
"o  c #190D0F",
"O  c #11100F",
"+  c #160F10",
"@  c #1B0E11",
"#  c #151112",
"$  c #1C1214",
"%  c #1D1718",
"&  c #1D191A",
"*  c #220F13",
"=  c #231216",
"-  c #291217",
";  c #251619",
":  c #2C161A",
">  c #231B1C",
",  c #2D191D",
"<  c #31171C",
"1  c #33191E",
"2  c #38191F",
"3  c #251F21",
"4  c #2E1D20",
"5  c #351B20",
"6  c #3C1D23",
"7  c #252223",
"8  c #2A2426",
"9  c #2B2629",
"0  c #2D292C",
"q  c #24222C",
"w  c #3E2026",
"e  c #3E2529",
"r  c #322B2E",
"t  c #38272A",
"y  c #2D2B34",
"u  c #322E32",
"i  c #392C31",
"p  c #353033",
"a  c #3B3235",
"s  c #34313C",
"d  c #3C3539",
"f  c #3F393C",
"g  c #411E25",
"h  c #432027",
"j  c #452229",
"k  c #4B242B",
"l  c #442A2D",
"z  c #4C282F",
"x  c #51262E",
"c  c #52282F",
"v  c #452C31",
"b  c #4C2B31",
"n  c #512730",
"m  c #542A31",
"M  c #5A2D34",
"N  c #5E2F38",
"B  c #4E3132",
"V  c #45393B",
"C  c #533336",
"Z  c #5E323A",
"A  c #58373B",
"S  c #602F38",
"D  c #64333C",
"F  c #6A353E",
"G  c #3C3A40",
"H  c #483F42",
"J  c #5D3F41",
"K  c #6E3942",
"L  c #663842",
"P  c #753E48",
"I  c #4A4345",
"U  c #534B4D",
"Y  c #5B4C4C",
"T  c #584346",
"R  c #574F51",
"E  c #5B5353",
"W  c #5A5658",
"Q  c #474655",
"!  c #674949",
"~  c #6A4953",
"^  c #6B5A55",
"/  c #745E5B",
"(  c #704F4F",
")  c #79675D",
"_  c #58566A",
"`  c #514F65",
"'  c #635B64",
"]  c #6B6567",
"[  c #736C6B",
"{  c #776A66",
"}  c #7D7264",
"|  c #7A716D",
" . c #7D7574",
".. c #7E797B",
"X. c #7C7677",
"o. c #6F6579",
"O. c #866D6C",
"+. c #84796B",
"@. c #837569",
"#. c #827B7C",
"$. c #827975",
"%. c #937A74",
"&. c #8B8172",
"*. c #8B827D",
"=. c #958A7A",
"-. c #998B7E",
";. c #958579",
":. c #9C907F",
">. c #5A6083",
",. c #777787",
"<. c #6D6E8A",
"1. c #767EA5",
"2. c #827B82",
"3. c #807C98",
"4. c #7E83A5",
"5. c #868082",
"6. c #8C8484",
"7. c #8E898A",
"8. c #8A868A",
"9. c #928B8B",
"0. c #988983",
"q. c #9C9385",
"w. c #938E91",
"e. c #9A9393",
"r. c #9C9798",
"t. c #A59986",
"y. c #A69B8B",
"u. c #A39686",
"i. c #A19C9D",
"p. c #A59D92",
"a. c #A58F8E",
"s. c #ACA08E",
"d. c #ADA59B",
"f. c #ACA595",
"g. c #B5AD9C",
"h. c #B6A997",
"j. c #BCB19D",
"k. c #B0A28D",
"l. c #A69FA0",
"z. c #AAA3A4",
"x. c #ADA9AC",
"c. c #A8A4A6",
"v. c #B4AAA8",
"b. c #BCB5A4",
"n. c #B7B1A4",
"m. c #B3AFB2",
"M. c #B6B2B5",
"N. c #BAB7BA",
"B. c #BBB7B9",
"V. c #C2B39C",
"C. c #C3BAA5",
"Z. c #C9BDA5",
"A. c #C4BCAA",
"S. c #C9BFAA",
"D. c #C3B7A4",
"F. c #CABAB9",
"G. c #C3AEAD",
"H. c #CBC2AD",
"J. c #C7C1AD",
"K. c #D1C6AF",
"L. c #CDC5B1",
"P. c #CECAB9",
"I. c #D0C7B1",
"U. c #D4CAB4",
"Y. c #D9CFB6",
"T. c #D5CEB9",
"R. c #D8CFB9",
"E. c #D5D0BC",
"W. c #DCD3BC",
"Q. c #E1D7BE",
"!. c #E3D8BF",
"~. c #BDBBC1",
"^. c #C1BEC1",
"/. c #C5C2C5",
"(. c #CECBCD",
"). c #CAC4C8",
"_. c #D5C8C7",
"`. c #DDD6C1",
"'. c #DDD9C5",
"]. c #DEDBC8",
"[. c #D6CFD2",
"{. c #D9D7DB",
"}. c #DCDADD",
"|. c #D4D2D6",
" X c #E0D7C1",
".X c #E4DBC4",
"XX c #E9DFC6",
"oX c #E6DDC8",
"OX c #E8DFC9",
"+X c #E1DCDB",
"@X c #EBE0C7",
"#X c #EBE2CC",
"$X c #F0E6CC",
"%X c #F2E8CE",
"&X c #EFE6D1",
"*X c #F3EAD3",
"=X c #DDDBE0",
"-X c #E4E2E5",
";X c #E5E4E9",
":X c #ECEAED",
">X c #E9E4E7",
",X c #EEEDF1",
"<X c #F1EFF1",
"1X c #F3F2F5",
"2X c #FDFDFD",
"3X c #F8F7F8",
/* pixels */
" .R I G u 0 u 0 s s q G ` >.>.4.>.` ' 2.%.( K L N M b g 4 4 : 5 6 6 g D K P P K F D M C Z m c S ",
"U d s f a i 0 y y s q G G <.1.4._ ' ~ ~ K D N M j 6 4 4 ; = : 4 5 k D K K K K K m < $ = w z c m ",
"U U H a d a y 0 y y y s Q ,.1.o.L L Z M x j 6 5 4 ; @ @ $ ; : 6 m L K D D L D n =     X < h k c ",
"I ^ f 0 d i 0 0 0 i v A J ~ L N m m b b 5 5 : $ @ + + @ @ ; j M K K D S N L g @       = w j k c ",
"H R 0 7 9 r a r b N L N L N m k e j 5 ; = $ @ @ + + + + ; z F K K S D D S g +       X < g g x M ",
"I U 9 3 8 u f m L L M n m m k 6 5 ; = $ # + + + o + @ ; k L D F K D S M g +         X w g g x c ",
"H V 8 3 8 0 v S S M m n n g 5 4 - = $ + @ + + + + + 4 m S D K K K K n - +           $ 1 g g x g ",
"a u q 8 9 i M Z M n n g 6 5 4 ; ; $ # X # + + # + 4 m N L L D M k < @ . .           = 2 g g k g ",
"p 0 0 9 r l M c n g j 6 5 4 : ; % # # + # # $ $ 4 Z L D Z b 6 ; + . @ @ @ @ * + .   = 6 g g g k ",
"p r r r r x M x k j e 6 5 , > ; % # # % & > 3 9 m A m e , + X X X @ : 6 4 : : 5 : + ; 6 g g g x ",
"p 8 a p l c m x j g 6 5 5 , ; ; 3 0 f W ..5.5.5.O.U > # X X X X + @ 5 j g 5 : 5 6 g 6 6 g g k g ",
"0 8 i V z c c x j j 6 5 4 4 3 u ] r./.}.;X;X,X;X=X~.W & # # X X X @ , g n k 5 , 6 k n n n g g k ",
"r 0 p b M m x k k j 6 5 t ] i.x./.:X2X2X3X2X2X2X<X-X~.U % # X X X + ; 5 g m n 6 6 6 j k n n n g ",
"0 8 a m c c x k k 6 6 t e.}.+X-X,X2X2X2X2X2X2X2X3X,X=Xr.r # + X X X * : 6 g n M j 4 , 6 k b m m ",
"8 8 e m M x z k j 6 5 T F.h.d.}.2X2X2X2X2X2X2X2X2X2X;X~...f & + + + @ * 4 5 g m M n 6 6 6 j n m ",
"0 p l c c c x j w w 4 $.A.a.^.3X2X2X2X2X2X2X2X2X2X2X1X{.|.(.8.7 o . + @ * : 5 g k n N n 6 5 6 g ",
"p i k k x x k g w 6 t 8.n.v.>X2X2X2X2X2X2X2X2X2X2X2X3X{.x.v.P.] X X @ @ @ * - < 2 g k x M k 6 6 ",
"p e k x x x k g w 5 v =.v.(.:X}.(.(.=X3X2X2X2X2X:X,X<X=Xm.*.e...@ @ @ $ @ @ @ * * - 2 g x M g 6 ",
"9 l h x c k k g 6 , a 7.x.{.}.w.5.^.N.(.{.{.}.}.^.(.{.{./.9.9...% X $ * = * * $ * * - 2 g x n k ",
"7 k z k x k g 6 6 : i 7.N.}.N.] _ r.z.i.m.B.x.i.x.i.w.N.N.e.e.[ % @ $ * = - - * * - - < g x n k ",
"< k m k x h g 2 4 ; 8 8./.|.8.] 2.M.F.z.i.c.e.5.*.] R e.x.6.*.' t 5 4 ; - - : 5 5 6 6 g g x x k ",
"w k k c x g j 6 : > 3 #./.M. .w.^.:X,X+XF.M.x.w...G f 8.c.*. .E 6 j n g 5 < - < g g m n m n x g ",
"k k k k j 6 2 : > $ & W M.c.[ w.;X2X3X<X-X-X|.M.x.] I X.d.6.#.I 4 : 6 k n g < - < 2 g g x g k k ",
"k c x k h 5 , : % O # 9 9.x.| x.1X1X[..X^._.).=X^...U [ r.6.6.T 5 $ - 6 k n k g : 2 g g g g g g ",
"k k h k g < : * . # # % ] M.p.{.3X:X^.G.G.G.v.|.N.' H [ r.$.^ v g 6 < < g k M x n M n g g g g k ",
"x h g g 2 < * O . # % % u 7.B.|.;X;X^.a.%.-.z.^.M.^ U ,. .U r 4 6 g g 6 - 2 g x M n k k 6 5 g g ",
"x c k g 1 = + . O + > # O H w.N.^.F.z.O.O.9.z.x.r.{ ] | Y 8 : = - 6 g x g - 6 g g k g k g < 5 5 ",
"h k h g 2 = .   . @ > @ & 9 R q.m.l.2.O./ $.7.9.8.+.| E r > , < * - g k x g - < 2 6 g k x g < : ",
"h 2 2 1 1 - + . . * ; ; $ # & I 3.z.i.9.$.[ $.#. .[ R r = = 4 5 * o * g x x g : - : 1 g j k k 1 ",
"h h 2 < - @ O . O $ ; ; + # X X 8 ! X.6.$.$.| ] E I 0 ; > : < 1 : o X - g k x g 1 * - : 2 g j k ",
"h h g 2 - @ . . . X * > $ X X . . # 7 p I W U a 9 3 % ; : < < < - o   o 5 k n x n 6 o o < < g h ",
"h g 2 2 : * X . O X # ; ; X . O . + O O # u 9 9 = # $ ; : < : : * @ * * - g x k n x < o : 2 2 1 ",
"h 6 h 2 : = X @ $ X O + = @ X . . . . O O # . + X $ - < < : : < < 5 6 - * 5 g k n k 6 - j n n 6 ",
"h h h 6 : @ o $ = o + $ $ = o X # O O O     . . @ - , 2 < < 1 5 6 g 6 * * 5 g g j n n 6 n M n n ",
"k h w 6 : @ @ = = $ = : ; = @ o % % % .   . X = , < 5 6 1 6 6 g g 6 - * * 5 g k n n g n n n n n ",
"B k h 6 1 ; ; ; ; ; : < : = = @ # # O O # # $ < 5 5 2 5 5 g g g 5 < * : < 5 j n n n n n n k n k ",
"^ B B h 5 1 1 1 5 5 4 < : ; = o & 8 % % % + ; : < 5 6 6 6 6 6 5 2 6 g g k n x n n M n n g g j j ",
"&.^ B h w 6 w w h 6 4 : ; = @ o @ > & # X X * , 5 6 6 6 5 < ; - g x n x k x n g k g g g w w w w ",
":.=.^ B e h w 6 6 5 : ; = $ = ; * ; ; ; = @ * < 2 6 6 5 < * < g x x x x g g g k 6 6 6 2 6 2 < < ",
"k.:.&.@.! C l e 5 2 4 : < < : : : : , : < - - 2 5 6 6 < * , k k g g k g g g 2 6 2 2 2 2 - < * * ",
"Z.Z.V.k.:.=.&.@.! B j w 2 1 < < 1 1 1 1 1 < : : 6 5 < : 1 g g g g g 6 6 6 6 < : - - @ * * < < < ",
"Y.Y.Y.Y.Y.Z.V.h.k.;.^ B 6 5 5 5 2 2 6 2 2 6 1 : 1 5 1 5 g g g < 6 < - - : - * @ @ * - < 2 g g g ",
"!.!.!.!.Q.K.Z.V.V.C.j.%.C 5 6 w h 6 h 6 6 6 2 2 < 6 g 6 g k g 5 g 2 < - - - - < 2 2 g g k k n k ",
"!.@X!.!.Q.Y.K.Z.V.Z.Z.D.:.J e h h h h 6 h g h h 5 1 g k k g g k g g g g g w g g k k k k n k n n ",
"#X#X#X#X!.Q.Y.K.S.Z.S.S.Z.q.T b z k j g h w j j 6 6 1 6 h j k k x x k k j k k k k n k k n n n g ",
"#X&X&X&X@X!.W.Y.I.S.S.K.I.S.t.) ) / J b k k j h h w 6 : : 5 6 h g g j g g j k k k k k k k k k j ",
"&X*X*X*X#XoX.XW.Y.U.S.S.I.I.S.j.A.D.u.} ! C j j w 6 g 5 1 : : < 2 5 6 6 g 6 6 g g g g g j k g g ",
"*X*X&X&X#X#X@XQ.R.R.I.A.A.L.H.I.`.W.E.C.s.@.J k j j 6 e j h 6 6 6 < : * - - : - < 2 2 2 6 g g g ",
"*X*X&X#X#X@XoX].W.W.W.L.J.C.D.L.Q..X.XoXW.C.;.! z h j z k j k j k g 6 < - o X X @ - = - < < 2 g ",
"*X*X%X&X@X@X.X.XQ.'. XT.U.H.C.H.W..X.XOXOX XK.t.( z j k j j z k k k j g 5 = o X = 1 : - * @ @ * ",
"$X%X$X@X@X!..X@XoXoX'.`.R.H.L.W.W.oXoXoXOXoXW.K.h.O.C k z z n k j j k j 6 5 : @ = 5 w 2 < - @ @ ",
"$X%X$X.X.XW..X@X@X@X X.XW.H.S.Q.Q.oX#X@XoX.X.XW.W.H.;./ A m n b n k k j g 6 < - * 5 g 6 6 < - * ",
"#X%X$X!.!.XX@X@XXXXX.X.XR.K.U.Y.!.XX#X#X@X.X@XW.Q.W.Y.H.-.( Y C k n k k w 6 2 : = 1 j w g g 2 < ",
"$X$X#X!.Q.@X@X.XXXXX.XW.W.U.U.Y.W.#X%X&X&X@X@X.XY.W.W.Q.L.s.&.) v 6 6 k k w 2 < ; : w g g j g g ",
"@X@X@X!.!.@X@X@XXXoXoXW.`.W.Y.Q.U.!.#X&X#X@X.X.XY.Y.Y.Y.W.I.j.q.L j j j j k 2 4 - * 6 j g j g j ",
"XX!.XX!.!.@X@X@X@XoX.X.X`.U.W.@XW.U.'.oXoX].@X.XY.U.Y.K.K.U.H.g.{ L b j w w 5 1 - * 6 g g g g k ",
"XX!.W.!.W.@X@X@XoX.XQ.W.U.H.`.@X@XT.U.W.@XW.'.'.W.U.I.H.L.L.J.j.0.L 1 , , 5 w 1 , - 1 j j j g w ",
"XXXXQ.Y.W.'.].]..X`.'.E.U.U..X'.W.W.U.W.'.W.W.W.W.I.U.U.Y.U.L.b.e.~ : + $ w l 1 , - 1 w k j g 6 ",
"!.!.!.W.W.!.@XW.W.'.'.`.`.`.W.W.E.E.E.K.'.W.W.'.`.E.L.U.E.W.W.J.f.@.z , ; 4 w w , : : w j k j w ",
"Y.Y.W.Y.J.W.W.].'.W.'.'.`.`.U.I.@X@XE.K.W.@XW.'.].`.E.U.I.K.E.W.H.p.{ Y H i e w 1 : : w j w w j ",
"W.U.U.J.d.J.n.b.L.L.U.U.L.L.E.U.W.].Y.U.K.].].].].].`.P.L.I.U.W.W.T.A.q.=.&.^ l 5 < < w k w j j ",
"U.b.b.n.g.f.7.&.} ) } +.&.q.d.j.L.W.T.K.U.W.#X].].].'.E.L.U.L.U.E.U.E.L.t.y.p.! w < , w n j v w ",
"f.p.f.e.q.*.&.} } } +.+.+.+.+.+.&.=.q.n.P.E.].].'.'.E.E.P.J.H.H.H.L.E.`.H.s.f.0.k 2 5 w k w j j ",
"=.=.=.=.=.=.:.t.q.t.t.t.t.:.q.:.=.&.&.&.q.d.J.P.P.).P.J.J.J.J.J.J.A.P.E.b.C.g.j.o.n 6 v k j j j "
};
