/* XPM */
static char *a892ae7d4e9247239881aa90f79dd7409DrJOAauJIvbCBAp[] = {
/* columns rows colors chars-per-pixel */
"29 23 8 1 ",
"  c None",
". c #2F2F2E",
"X c #3B3B39",
"o c #4F4F4E",
"O c #9D5021",
"+ c #D67941",
"@ c gray72",
"# c white",
/* pixels */
"                             ",
"                             ",
"                             ",
"                             ",
"                ..           ",
"               .O.  ...      ",
"              .O#. .O+.      ",
"              .O#.....       ",
"              .OO++++.       ",
"       ...    .OO+.OOO.      ",
"      .+++.  .OOO++++...     ",
"     .+++++. .@@#######.     ",
"    .@@OO++.....@@###..      ",
"    .@@..O.OOOOO.....        ",
"    .@.  .OOOO++++##.        ",
"    ..   .OOO+++O@@..        ",
"         .O....+...O.        ",
"         .X.X..o. .o.        ",
"         .. .  ..  ..        ",
"                             ",
"                             ",
"                             ",
"                             "
};
