/* XPM */
static char *_9f9a47c8c744fdba45e72158d42aa05qJp5so5NNW8CchiD[] = {
/* columns rows colors chars-per-pixel */
"96 119 9 1 ",
"  c None",
". c #2E222F",
"X c #313638",
"o c #7A3045",
"O c #374E4A",
"+ c #547E64",
"@ c #9E4539",
"# c #CD683D",
"$ c #92A984",
/* pixels */
"                                  ..........OO++++OO..........                                  ",
"                              ....OO++++++++++++++++++++++++OO....                              ",
"                              ....OO++++++++++++++++++++++++OO....                              ",
"                            ..OO++++++++$$$$$$++++$$$$$$++++++++OO..                            ",
"                            ..OO++++++++$$$$$$++++$$$$$$++++++++OO..                            ",
"                          ..OO++++++++$$$$$$$$$$$$$$$$$$$$++++++++OO..                          ",
"                          ..OO++++++++$$$$$$$$$$$$$$$$$$$$++++++++OO..                          ",
"                      ....OO++++++++++$$$$$$$$$$$$$$$$$$$$++++++++++OO....                      ",
"                      ....OO++++++++++$$$$$$$$$$$$$$$$$$$$++++++++++OO....                      ",
"                  ....OOOOOO++++++++++++$$$$$$$$$$$$$$$$++++++++++++OOOOOO....                  ",
"                  ....OOOOOO++++++++++++$$$$$$$$$$$$$$$$++++++++++++OOOOOO....                  ",
"                ..OOOOOOOO++OO++++OO++$$$$$$$$$$$$$$$$$$$$++OO++++OOOO++OO++OO..                ",
"                ..OOOOOOOO++OO++++OO++$$$$$$$$$$$$$$$$$$$$++OO++++OOOO++OO++OO..                ",
"                ..OO++++++OOOOOOOO++$$$$$$$$$$$$$$$$$$$$$$$$++OOOOOOOOOO++OOOO..                ",
"                ..OO++++++OOOOOOOO++$$$$$$$$$$$$$$$$$$$$$$$$++OOOOOOOOOO++OOOO..                ",
"                ......OOOOOOOOOO++++++$$$$++$$$$$$$$++$$$$++++++OOOOOOOOOO......                ",
"                ......OOOOOOOOOO++++++$$$$++$$$$$$$$++$$$$++++++OOOOOOOOOO......                ",
"              ..++++++++++OOOOOO++++++++++++++$$$$++++++++++++++OOOOOO++++++++++..              ",
"              ..++++++++++OOOOOO++++++++++++++$$$$++++++++++++++OOOOOO++++++++++..              ",
"            ..++++++++++++++OOOOOO++++++OO++++++++++++OO++++++OOOOOO++++++++++++++..            ",
"            ..++++++++++++++OOOOOO++++++OO++++++++++++OO++++++OOOOOO++++++++++++++..            ",
"              ..++++++++++OOOOOOOOOOOOOOOOOO++++++++OOOOOOOOOOOOOOOOOO++++++++++..              ",
"              ..++++++++++OOOOOOOOOOOOOOOOOO++++++++OOOOOOOOOOOOOOOOOO++++++++++..              ",
"              ..++++++$$OOOOOOOOOOOOOOOOOO++++++++++++OOOOOOOOOOOOOOOOOO$$++++++..              ",
"              ..++++++$$OOOOOOOOOOOOOOOOOO++++++++++++OOOOOOOOOOOOOOOOOO$$++++++..              ",
"            ..++++$$$$++OO++OOOOOO++OOOOOO++++++++++++OOOOOO++OOOOOO++OO++$$$$++++....          ",
"            ..++++$$$$++OO++OOOOOO++OOOOOO++++++++++++OOOOOO++OOOOOO++OO++$$$$++++....          ",
"          ..OO++++++++++OOOO++++++OO++OOOOOO++++++++OOOOOO++OO++OOOO++OO++++++++++OOOO..        ",
"          ..OO++++++++++OOOO++++++OO++OOOOOO++++++++OOOOOO++OO++OOOO++OO++++++++++OOOO..        ",
"        ..OO++++++++++++++++OOOOOO++++++OOOOOOOOOOOOOOOO++++++OO++++OOOO++$$++++++++OO..        ",
"        ..OO++++++++++++++++OOOOOO++++++OOOOOOOOOOOOOOOO++++++OO++++OOOO++$$++++++++OO..        ",
"      ..OO++++++++++$$++++++++++++++++++++OOOOOOOOOOOO++++++++++OOOO++++++$$++++++++++OO..      ",
"      ..OO++++++++++$$++++++++++++++++++++OOOOOOOOOOOO++++++++++OOOO++++++$$++++++++++OO..      ",
"    ..OOOO++$$$$$$$$++OO++++++++++++++++OO++OOOOOOOO++OO++++++++++++++++OO++$$$$$$$$++OOOO..    ",
"    ..OOOO++$$$$$$$$++OO++++++++++++++++OO++OOOOOOOO++OO++++++++++++++++OO++$$$$$$$$++OOOO..    ",
"    ..OOOOOO++++++++OOOO++++++++++++++++OO++++++++++++OO++++++$$++++++++OOOO++++++++OOOOOO..    ",
"    ..OOOOOO++++++++OOOO++++++++++++++++OO++++++++++++OO++++++$$++++++++OOOO++++++++OOOOOO..    ",
"    ..OOOOOOOOOOOOOOOO++++++++++$$++++++++OOOOOOOOOOOO++++++++$$++++++++++OOOOOOOOOOOOOOOO..    ",
"    ..OOOOOOOOOOOOOOOO++++++++++$$++++++++OOOOOOOOOOOO++++++++$$++++++++++OOOOOOOOOOOOOOOO..    ",
"    ..OOOOOOOOOOOOOOOO++++++++$$++OO++++++++++++++++++++++++OO++$$++++++++OOOOOO++OOOOOOOO..    ",
"    ..OOOOOOOOOOOOOOOO++++++++$$++OO++++++++++++++++++++++++OO++$$++++++++OOOOOO++OOOOOOOO..    ",
"    ..OOOOOOOO++OOOOOO++$$$$$$++OOOO++++++++$$++++$$++++++++OOOO++$$$$$$++OOOOXXOO++OOOOOO..    ",
"    ..OOOOOOOO++OOOOOO++$$$$$$++OOOO++++++++$$++++$$++++++++OOOO++$$$$$$++OOOOXXOO++OOOOOO..    ",
"    ..OO++++++OOXXOOOOOO++++++OOOO++$$++++$$++OOOO++$$++++$$++OOOO++++++OOOOXXXXXXOO++++OO..    ",
"    ..OO++++++OOXXOOOOOO++++++OOOO++$$++++$$++OOOO++$$++++$$++OOOO++++++OOOOXXXXXXOO++++OO..    ",
"  ..XXOOOOOOOOXXXXXXOOOOOOOOOOOOOO++$$$$$$++OOOOOOOO++$$$$$$++OOOOOOOOOOOOOOXXXXXXXXOOOOOOXX..  ",
"  ..XXOOOOOOOOXXXXXXOOOOOOOOOOOOOO++$$$$$$++OOOOOOOO++$$$$$$++OOOOOOOOOOOOOOXXXXXXXXOOOOOOXX..  ",
"  ..XXXXXXXXXXXXXXXXOOOOOOOOOOOOOOOO++++++OOOOOOOOOOOO++++++OOOOOOOOOO++++OOOOXXXXXXXXXXXXXX..  ",
"  ..XXXXXXXXXXXXXXXXOOOOOOOOOOOOOOOO++++++OOOOOOOOOOOO++++++OOOOOOOOOO++++OOOOXXXXXXXXXXXXXX..  ",
"..XXXXXXXXXXXXXXXXOOOOOOOOOOOO++OOOOOOOOOOOOOOOOOOOOOOOOOOOOOOOOOOOOXXOOOO++OOXXXXXXXXXXXXXXXX..",
"..XXXXXXXXXXXXXXXXOOOOOOOOOOOO++OOOOOOOOOOOOOOOOOOOOOOOOOOOOOOOOOOOOXXOOOO++OOXXXXXXXXXXXXXXXX..",
"..XXXXXXXXXXXXXXXXOO++OOOO++++OOXXOOOOOO++OOOOOOOOOOOOOOOOOOOOOOOOOOXXXXXXOOOOXXXXXXOOXXXXXXXX..",
"..XXXXXXXXXXXXXXXXOO++OOOO++++OOXXOOOOOO++OOOOOOOOOOOOOOOOOOOOOOOOOOXXXXXXOOOOXXXXXXOOXXXXXXXX..",
"..XXXXXXXXOOXXXXXXXXOO++++OOOOXXXXOO++++OOXXOO++OO++OOOOXXOO++OOOOOOOOXXXXXXOOXXXXXXXXOOXXXXXX..",
"..XXXXXXXXOOXXXXXXXXOO++++OOOOXXXXOO++++OOXXOO++OO++OOOOXXOO++OOOOOOOOXXXXXXOOXXXXXXXXOOXXXXXX..",
"..XXXXXXOOXXOOXXXXXXOOOOOOXXXXXXXXOOOOOOXXXXOO++OO++OOXXXXOOOO++OO++OOXXXXXXXXXXXXXXOOXXOOXXXX..",
"..XXXXXXOOXXOOXXXXXXOOOOOOXXXXXXXXOOOOOOXXXXOO++OO++OOXXXXOOOO++OO++OOXXXXXXXXXXXXXXOOXXOOXXXX..",
"  ..OOOOXXOOXXXXXXXXXXXXXXXXXXXXXXXXXXXXXXXXOO++OO++OOXXXXXXXXOO++++OOOOXXXXXXXXXXXXXXOOXXOO..  ",
"  ..OOOOXXOOXXXXXXXXXXXXXXXXXXXXXXXXXXXXXXXXOO++OO++OOXXXXXXXXOO++++OOOOXXXXXXXXXXXXXXOOXXOO..  ",
"..OOXXXXOOXXXXOOXXXXXXXXXXXXXXXXXXXXXXXXXXXXOOOO++OOOOXXXXXXXXXXOOOOOOXXXXXXOOXXXXXXXXOOOOXXOO..",
"..OOXXXXOOXXXXOOXXXXXXXXXXXXXXXXXXXXXXXXXXXXOOOO++OOOOXXXXXXXXXXOOOOOOXXXXXXOOXXXXXXXXOOOOXXOO..",
"..OOOOOOOOXXOOXXOOXXXXXXXXXXXXXXXXXXXXXXXXXXXXOOOOOOXXXXXXXXXXXXXXXXXXXXXXOOXXOOOOOOXXOOOOOOOO..",
"..OOOOOOOOXXOOXXOOXXXXXXXXXXXXXXXXXXXXXXXXXXXXOOOOOOXXXXXXXXXXXXXXXXXXXXXXOOXXOOOOOOXXOOOOOOOO..",
"..OO++OOOOXXXXOOOOOOXXXXXXXXXXXXOOXXOOXXXXXXXXXXXXXXXXXXXXOOXXOOXXXXXXXXXXXXOOXXXXXXXXOOOO++OO..",
"..OO++OOOOXXXXOOOOOOXXXXXXXXXXXXOOXXOOXXXXXXXXXXXXXXXXXXXXOOXXOOXXXXXXXXXXXXOOXXXXXXXXOOOO++OO..",
"..OO++++++OOOOOOOOOOXXXXXXXXXXOOXXOOOOXXOOXXXXXXXXXXXXOOXXOOXXOOXXXXXXXXXXXXOOOOOOOOOO++++++OO..",
"..OO++++++OOOOOOOOOOXXXXXXXXXXOOXXOOOOXXOOXXXXXXXXXXXXOOXXOOXXOOXXXXXXXXXXXXOOOOOOOOOO++++++OO..",
"  ..OOOOOOOOOOOOOOOOXXXXXXXXOOXXOOOOOOXXOOXXXXOOXXOOXXOOXXOOOOXXOOOOXXXXXXXXOOOOOOOOOOOOOOOO..  ",
"  ..OOOOOOOOOOOOOOOOXXXXXXXXOOXXOOOOOOXXOOXXXXOOXXOOXXOOXXOOOOXXOOOOXXXXXXXXOOOOOOOOOOOOOOOO..  ",
"    ......XXOOOOOOOOXXXXXXXXOOXXOOOOOOXXXXOOOOXXOOXXOOXXXXOOOOOOXXXXOOXXOOXXOOOOOOOOXXXX....    ",
"    ......XXOOOOOOOOXXXXXXXXOOXXOOOOOOXXXXOOOOXXOOXXOOXXXXOOOOOOXXXXOOXXOOXXOOOOOOOOXXXX....    ",
"      ..XXXXOOOOOOOOOOXXOOOOXXOOOOOOOOOOXXXXXXOOOOXXXXXXOOOOOOOOOOOOXXOOXXOOOOOOOOOOXXXXXX..    ",
"      ..XXXXOOOOOOOOOOXXOOOOXXOOOOOOOOOOXXXXXXOOOOXXXXXXOOOOOOOOOOOOXXOOXXOOOOOOOOOOXXXXXX..    ",
"    ..XXXXXXOOOOOOOOOOXXXXXXOOOOOOOOOOOOOOOOOOOOOOOOOOOOOOOOOOOOOOOOXXXXXXOOOOOOOOOOXXXXXXXX..  ",
"    ..XXXXXXOOOOOOOOOOXXXXXXOOOOOOOOOOOOOOOOOOOOOOOOOOOOOOOOOOOOOOOOXXXXXXOOOOOOOOOOXXXXXXXX..  ",
"    ..XXXXXXOO++OOOOOO++OOOOOOOOOOOOOOOOOOOOOOOOOOOOOOOOOOOOOOOOOOOOOOOOOO++OOOO++OOXXXXXXXX..  ",
"    ..XXXXXXOO++OOOOOO++OOOOOOOOOOOOOOOOOOOOOOOOOOOOOOOOOOOOOOOOOOOOOOOOOO++OOOO++OOXXXXXXXX..  ",
"    ..XXXXXXOO++++++++OOXXOOOOOOOOOOOO++++OO++OOOO++OOOO++OOOOOOOOOOOOXXOOOO++++++OOXXXXXXXX..  ",
"    ..XXXXXXOO++++++++OOXXOOOOOOOOOOOO++++OO++OOOO++OOOO++OOOOOOOOOOOOXXOOOO++++++OOXXXXXXXX..  ",
"      ..XXXXXXOOOOOOOOXXXXOO++OOOO++++OOOOOO++OOOO++OOOOOO++++OOOO++OOXXXXOOOOOOOOXXXXXXXX..    ",
"      ..XXXXXXOOOOOOOOXXXXOO++OOOO++++OOOOOO++OOOO++OOOOOO++++OOOO++OOXXXXOOOOOOOOXXXXXXXX..    ",
"      ..XXXXXXXXXXXXXXXXXXOO++++++OOOOXXXXOO++OOOO++OOXXXXOOOO++++++OOXXXXXXXXXXXXXXXXXXXX..    ",
"      ..XXXXXXXXXXXXXXXXXXOO++++++OOOOXXXXOO++OOOO++OOXXXXOOOO++++++OOXXXXXXXXXXXXXXXXXXXX..    ",
"        ..XXXXXXXXXXXXXXXXXXOOOOOOXXXXXXXXOOOO++++OOOOXXXXXXXXOOOOOOXXXXXXXXXXXXXXXXXXXX..      ",
"        ..XXXXXXXXXXXXXXXXXXOOOOOOXXXXXXXXOOOO++++OOOOXXXXXXXXOOOOOOXXXXXXXXXXXXXXXXXXXX..      ",
"        ..XXXXXXXXXXXXXXXXXXXXXXXXXXXXXXXXXXOOOOOOOOXXXXXXXXXXXXXXXXXXXXXXXXXXXXXXXXXXXX..      ",
"        ..XXXXXXXXXXXXXXXXXXXXXXXXXXXXXXXXXXOOOOOOOOXXXXXXXXXXXXXXXXXXXXXXXXXXXXXXXXXXXX..      ",
"          ..XXXXXXXXXXXXXXXXXXXXXXXXXXXXXXXXXXXXXXXXXXXXXXXXXXXXXXXXXXXXXXXXXXXXXXXXXX..        ",
"          ..XXXXXXXXXXXXXXXXXXXXXXXXXXXXXXXXXXXXXXXXXXXXXXXXXXXXXXXXXXXXXXXXXXXXXXXXXX..        ",
"            ....XXXXXXXXXXXXXXXXXXXXXXXXXXXXXXXXXXXXXXXXXXXXXXXXXXXXXXXXXXXXXXXXXX....          ",
"            ....XXXXXXXXXXXXXXXXXXXXXXXXXXXXXXXXXXXXXXXXXXXXXXXXXXXXXXXXXXXXXXXXXX....          ",
"              ..XXXXXXXXXXXXXXXXXXXXXXXXXXXXXXXXXXXXXXXXXXXXXXXXXXXXXXXXXXXXXXXXXX..            ",
"              ..XXXXXXXXXXXXXXXXXXXXXXXXXXXXXXXXXXXXXXXXXXXXXXXXXXXXXXXXXXXXXXXXXX..            ",
"                ..XXXXXXXXXXXXXXXXXXXXXXXXXXXXXXXXXXXXXXXXXXXXXXXXXXXXXXXXXXXXXX..              ",
"                ..XXXXXXXXXXXXXXXXXXXXXXXXXXXXXXXXXXXXXXXXXXXXXXXXXXXXXXXXXXXXXX..              ",
"                  ....XXXXXX....XXXXXXXXXXXXXXXXXXXXXXXXXXXXXXXXXX....XXXXXX....                ",
"                  ....XXXXXX....XXXXXXXXXXXXXXXXXXXXXXXXXXXXXXXXXX....XXXXXX....                ",
"                      ......    ..XXXXXXXXXXXX......XXXXXXXXXXXX..    ......                    ",
"                      ......    ..XXXXXXXXXXXX......XXXXXXXXXXXX..    ......                    ",
"                                ..............oo####............                                ",
"                                ..............oo####............                                ",
"                                ..####@@oo##@@oo@@####@@oo@@##....                              ",
"                                ..####@@oo##@@oo@@####@@oo@@##....                              ",
"                              ..######@@oo##@@oo@@####@@oo@@##..oo..                            ",
"                              ..######@@oo##@@oo@@####@@oo@@##..oo..                            ",
"                            ..  ####@@oo##@@@@oo@@##@@@@oo@@##..oooo....                        ",
"                            ..  ####@@oo##@@@@oo@@##@@@@oo@@##..oooo....                        ",
"                        ....####  @@..####@@oo@@@@##@@oo@@####..  oooooo..                      ",
"                        ....####  @@..####@@oo@@@@##@@oo@@####..  oooooo..                      ",
"                      ..####@@@@....####@@@@oo@@####@@oo@@  ####....oo..                        ",
"                      ..####@@@@....####@@@@oo@@####@@oo@@  ####....oo..                        ",
"                              ..##  ##@@  @@oo######@@oo  ##########..                          ",
"                              ..##  ##@@  @@oo######@@oo  ##########..                          ",
"                            ..##@@@@  @@..  @@@@  ####..  @@..@@  @@@@..                        ",
"                            ..##@@@@  @@..  @@@@  ####..  @@..@@  @@@@..                        ",
"                              @@            @@  @@######....  ..                                ",
"                              @@            @@  @@######....  ..                                ",
"                                                    @@  ####..                                  ",
"                                                    @@  ####..                                  "
};
